<svg className="fill-violet-600 dark:fill-violet-400" xmlns="http://www.w3.org/2000/svg" width="199.647" height="44" viewBox="-0.084 -0.084 199.647 44" xml:space="preserve"><path fill="#070C19" d="M43.314 22.137c0 11.809 -9.572 21.345 -21.37 21.345 -11.812 0 -21.384 -9.537 -21.384 -21.345C0.555 10.329 10.122 0.752 21.93 0.746h0.015c11.8 0 21.369 9.563 21.369 21.391"/><path fill="#FFF" stroke="#FFF" stroke-width="0.16704709065971404" stroke-miterlimit="10" d="M43.001 24.631h-0.021l-1.851 -11.88a0.86 0.86 0 0 0 0.659 -0.84 0.879 0.879 0 0 0 -0.876 -0.87 0.867 0.867 0 0 0 -0.633 0.277L32.171 3.212a0.869 0.869 0 1 0 -1.529 -0.755L19.567 0.881A0.878 0.878 0 0 0 18.694 0h-0.003a0.878 0.878 0 0 0 -0.832 1.126l-6.35 2.886a0.876 0.876 0 0 0 -1.605 0.476c0 0.154 0.041 0.306 0.119 0.439l-1.822 1.458a0.87 0.87 0 0 0 -0.619 -0.253 0.87 0.87 0 0 0 -0.59 1.51L3.212 12.892a0.846 0.846 0 0 0 -0.427 -0.115 0.874 0.874 0 0 0 -0.246 1.711L0.907 24.352h-0.028A0.878 0.878 0 0 0 0 25.224a0.867 0.867 0 0 0 0.87 0.866h0.007q0.148 0 0.288 -0.042l4.614 8.991a0.888 0.888 0 0 0 -0.436 0.754 0.876 0.876 0 0 0 1.584 0.512l5.205 3.826c-0.128 0.153 -0.197 0.347 -0.196 0.547a0.875 0.875 0 0 0 0.869 0.869 0.867 0.867 0 0 0 0.835 -0.619l2.105 0.83q-0.017 0.105 -0.021 0.211a0.87 0.87 0 0 0 0.87 0.869 0.885 0.885 0 0 0 0.85 -0.661l6.949 0.8a0.874 0.874 0 1 0 1.748 -0.039 0.811 0.811 0 0 0 -0.044 -0.257l10.07 -4.848a0.863 0.863 0 0 0 0.731 0.393 0.876 0.876 0 0 0 0.49 -1.601l5.317 -10.297c0.096 0.029 0.194 0.045 0.293 0.045a0.878 0.878 0 0 0 0.876 -0.873 0.878 0.878 0 0 0 -0.876 -0.869zm-6.15 11.841a0.879 0.879 0 0 0 -0.828 0.925l0.005 0.056 -7.521 2.015a0.916 0.916 0 0 0 -0.067 -0.135l8.332 -6.931c0.111 0.082 0.238 0.14 0.373 0.168zm-11.147 5.737a0.883 0.883 0 0 0 -1.202 0.342 0.881 0.881 0 0 0 -0.084 0.204l-6.949 -0.804 -0.005 -0.045 9.413 -1.835c0.033 0.128 0.103 0.246 0.201 0.337zm-13.402 -2.246 -3.864 -2.835 4.383 2.683h-0.009a0.846 0.846 0 0 0 -0.511 0.153zM8.339 7.448l1.937 -2.246q0.197 0.129 0.462 0.158l-1.186 3.969a0.867 0.867 0 0 0 -0.642 0.839v0.085l-5.296 3.118a0.987 0.987 0 0 0 -0.162 -0.283l4.67 -5.402q0.125 -0.104 0.218 -0.236zM21.141 3.394a0.705 0.705 0 0 0 0.096 0.24L10.372 9.538a0.895 0.895 0 0 0 -0.589 -0.234l1.18 -3.958a0.867 0.867 0 0 0 0.685 -0.839zm9.485 -0.548a0.881 0.881 0 0 0 0.856 0.72q0.114 -0.005 0.218 -0.033l1.461 3.58c-0.136 0.082 -0.25 0.197 -0.33 0.336L22.828 3.394c0.006 -0.042 0.021 -0.098 0.021 -0.154zm9.933 9.863 -2.299 5.88a1.057 1.057 0 0 0 -0.213 -0.033 0.705 0.705 0 0 0 -0.201 0.033L34.008 8.641c0.107 -0.06 0.201 -0.14 0.275 -0.236l5.775 3.347c-0.007 0.059 -0.016 0.101 -0.016 0.157a0.867 0.867 0 0 0 0.518 0.8zM28.291 39.164a0.87 0.87 0 0 0 -0.455 -0.226l0.244 -9.736a0.863 0.863 0 0 0 0.574 -0.306l7.8 2.718a0.529 0.529 0 0 0 -0.007 0.11 0.902 0.902 0 0 0 0.165 0.511zm-11.696 1.931h-0.043l-0.994 -5.355a0.867 0.867 0 0 0 0.479 -0.407l10.822 4.259a1.269 1.269 0 0 0 -0.029 0.215l0.008 0.045 -9.413 1.836a0.867 0.867 0 0 0 -0.829 -0.593zM21.384 3.817a0.899 0.899 0 0 0 0.598 0.236q0.094 -0.002 0.173 -0.026l3.141 9.042a0.899 0.899 0 0 0 -0.441 0.536l-14.21 -3.406c0 -0.016 0.007 -0.016 0.007 -0.033 0.001 -0.158 -0.046 -0.314 -0.134 -0.445zm6.222 35.122a0.853 0.853 0 0 0 -0.666 0.435l-10.821 -4.25q0.024 -0.105 0.026 -0.21a0.987 0.987 0 0 0 -0.049 -0.276l11.277 -5.672c0.129 0.129 0.297 0.213 0.478 0.24zM10.611 10.419l14.209 3.412v0.012a0.916 0.916 0 0 0 0.16 0.521L16.693 22.188a0.853 0.853 0 0 0 -0.549 -0.192c-0.078 0 -0.147 0 -0.218 0.026L10.205 10.939c0.2 -0.112 0.346 -0.3 0.406 -0.521zm16.56 17.591L16.974 23.128a0.839 0.839 0 0 0 -0.127 -0.77l8.297 -7.828c0.148 0.118 0.335 0.199 0.543 0.199h0.021l1.999 12.795a0.842 0.842 0 0 0 -0.539 0.487zM16.193 23.733a0.846 0.846 0 0 0 0.68 -0.393l10.24 4.897c0 0.043 -0.006 0.068 -0.006 0.11 0.002 0.153 0.043 0.303 0.117 0.435L15.994 34.434a0.846 0.846 0 0 0 -0.533 -0.36zm11.791 3.733h-0.049l-1.998 -12.777a0.867 0.867 0 0 0 0.495 -0.378L37.212 19.175a0.934 0.934 0 0 0 0.113 0.757L28.642 27.775a0.892 0.892 0 0 0 -0.658 -0.31zm9.322 -8.489 -10.781 -4.876c0.027 -0.082 0.039 -0.169 0.033 -0.256a0.8 0.8 0 0 0 -0.109 -0.419l6.514 -4.938a0.846 0.846 0 0 0 0.825 0.236l3.838 9.946a0.93 0.93 0 0 0 -0.32 0.307zm-4.476 -10.672L26.307 13.245a0.796 0.796 0 0 0 -0.615 -0.267l-0.176 0.009 -3.141 -9.028a0.941 0.941 0 0 0 0.367 -0.352l10.008 4.054q-0.029 0.103 -0.026 0.211c0.001 0.151 0.038 0.3 0.108 0.434zm-23.053 2.735c0.074 0 0.147 0 0.218 -0.028l5.721 11.092a0.849 0.849 0 0 0 -0.448 0.763v0.011l-8.963 1.402a0.846 0.846 0 0 0 -0.356 -0.489l3.564 -12.794q0.13 0.039 0.265 0.042zm-3.435 13.465 8.963 -1.404a0.888 0.888 0 0 0 0.663 0.621l-0.734 10.321a0.775 0.775 0 0 0 -0.462 0.154l-8.628 -9.135c0.13 -0.152 0.2 -0.346 0.196 -0.546zm30.921 6.355a0.867 0.867 0 0 0 -0.75 0.534l-7.727 -2.703c0.045 -0.109 0.068 -0.226 0.068 -0.343a0.811 0.811 0 0 0 -0.086 -0.377l8.713 -7.868c0.118 0.1 0.251 0.157 0.398 0.199zM8.452 6.956a0.916 0.916 0 0 0 -0.113 -0.389l1.48 -1.182zM3.662 13.664c0 -0.033 0 -0.042 -0.007 -0.073l5.31 -3.113c0.057 0.175 0.176 0.324 0.333 0.42L5.737 23.689a1.057 1.057 0 0 0 -0.267 -0.042h-0.098L3.099 14.463a0.867 0.867 0 0 0 0.562 -0.8zm2.314 11.56 8.625 9.129a0.937 0.937 0 0 0 -0.201 0.52l-7.373 0.588a0.867 0.867 0 0 0 -0.743 -0.532l-0.645 -9.555c0.122 -0.025 0.238 -0.078 0.338 -0.152zm1.088 10.797q0.033 -0.111 0.028 -0.228c0 -0.041 0 -0.065 -0.007 -0.109l7.334 -0.586a0.867 0.867 0 0 0 0.849 0.689h0.063l0.996 5.351a0.941 0.941 0 0 0 -0.415 0.283zm30.79 -4.994a0.775 0.775 0 0 0 -0.358 -0.154l0.615 -10.562a0.952 0.952 0 0 0 0.393 -0.139l3.86 4.738a0.867 0.867 0 0 0 -0.031 1.15zm4.689 -6.269 -3.864 -4.727a0.873 0.873 0 0 0 -0.209 -1.36l2.307 -5.895a0.352 0.352 0 0 1 0.127 0.014l1.851 11.88a0.493 0.493 0 0 0 -0.213 0.087zm-2.412 -13.225 -5.736 -3.326c0.04 -0.109 0.062 -0.223 0.062 -0.338a0.867 0.867 0 0 0 -0.863 -0.873h-0.006c-0.074 0.003 -0.148 0.014 -0.219 0.032L31.907 3.44c0.038 -0.016 0.071 -0.045 0.098 -0.056l8.129 8.119c0.005 0.014 -0.005 0.014 -0.005 0.031v-0.001zM30.283 2.636 22.842 3.017a0.878 0.878 0 0 0 -0.861 -0.72c-0.243 0.004 -0.474 0.106 -0.64 0.283L19.471 1.275q0.042 -0.079 0.063 -0.167zM17.957 1.331a0.867 0.867 0 0 0 0.743 0.422c0.242 0 0.473 -0.101 0.638 -0.279l1.872 1.304a0.705 0.705 0 0 0 -0.101 0.378l-9.489 1.107 -0.014 -0.045zM7.582 7.868h0.075l-3.254 3.774 2.778 -3.873c0.123 0.068 0.26 0.102 0.4 0.099zM2.764 14.528h0.021c0.033 0 0.063 -0.008 0.092 -0.008l2.27 9.185a0.867 0.867 0 0 0 -0.554 0.814v0.016l-2.881 0.446a0.899 0.899 0 0 0 -0.583 -0.588zm-1.39 11.408a0.895 0.895 0 0 0 0.37 -0.715v-0.016l2.884 -0.436a0.909 0.909 0 0 0 0.786 0.619l0.645 9.55c-0.021 0 -0.042 0.014 -0.063 0.014zm12.203 14.337 1.834 1.109 -1.728 -0.673v-0.031a0.694 0.694 0 0 0 -0.106 -0.405zm12.31 2.075 1.376 -1.796c0.133 0.082 0.281 0.125 0.441 0.126a0.875 0.875 0 0 0 0.864 -0.983l7.181 -1.92 -9.756 4.715a0.458 0.458 0 0 0 -0.107 -0.143zm11.186 -5.85 0.302 -3.918a0.855 0.855 0 0 0 0.636 -1.385l4.482 -4.95 -5.309 10.279a0.282 0.282 0 0 0 -0.113 -0.026z"/><path fill="#FFF" d="M21.96 36.105c-0.583 -0.127 -3.17 -1.262 -5.69 -3.398 -2.159 -1.808 -4.734 -4.766 -4.734 -8.469V11.191c0 -0.221 0.026 -0.63 0.189 -0.755 0.134 -0.127 0.457 -0.195 0.786 -0.293 0.078 -0.016 7.736 -2.021 9.463 -2.021s9.361 2.005 9.431 2.021c0.327 0.082 0.63 0.167 0.764 0.276 0.154 0.143 0.169 0.551 0.169 0.771v13.044c0 3.705 -2.559 6.665 -4.71 8.47 -2.523 2.138 -5.09 3.275 -5.669 3.399m-3.241 -6.518h0.448z"/><path fill="#070C19" d="m14.041 23.421 2.455 -2.45 3.705 3.699 7.181 -7.164 2.455 2.441 -9.637 9.638z"/><path d="M57.75 12.519v19.533h-3.999V12.519zm7.38 11.051v8.481H61.198V17.396h3.71l0.052 3.028q0.616 -1.534 1.743 -2.372c1.127 -0.839 1.691 -0.839 2.819 -0.839q2.28 0 3.657 1.468 1.377 1.468 1.376 4.051v9.32h-3.933V23.413q0 -1.363 -0.701 -2.137t-1.946 -0.773q-1.258 0 -2.051 0.806t-0.793 2.261m20.057 -6.175v3.002h-2.739v7.367q0 1.363 1.337 1.363 0.222 0 0.623 -0.059a8.106 8.106 0 0 0 0.623 -0.111l0.564 2.949q-0.656 0.197 -1.304 0.275c-0.649 0.079 -0.845 0.079 -1.239 0.079q-2.203 0 -3.369 -1.068 -1.167 -1.068 -1.167 -3.087V20.398h-2.019v-3.002h2.019v-3.487h3.933v3.487zm8.914 14.945q-2.241 0 -3.867 -0.918c-1.626 -0.918 -1.916 -1.481 -2.497 -2.609s-0.872 -2.464 -0.872 -4.012q0 -2.268 0.872 -3.972c0.872 -1.704 1.398 -2.023 2.451 -2.661s2.292 -0.957 3.717 -0.957q1.914 0 3.473 0.813t2.484 2.464 0.924 4.155v1.101h-10.028q0.066 1.796 0.996 2.713 0.931 0.918 2.412 0.918 1.036 0 1.777 -0.439 0.74 -0.439 1.055 -1.291l3.565 0.668q-0.537 1.822 -2.222 2.923c-1.685 1.101 -2.536 1.102 -4.24 1.102m-3.317 -9.059h6.214q-0.144 -1.429 -0.918 -2.268 -0.774 -0.839 -2.137 -0.839 -1.416 0 -2.228 0.872 -0.813 0.872 -0.931 2.235m12.69 8.77V17.396h3.802v2.556h0.157q0.406 -1.35 1.357 -2.051t2.183 -0.701q0.669 0 1.272 0.131v3.513q-0.263 -0.078 -0.767 -0.138a8.106 8.106 0 0 0 -0.937 -0.059q-1.363 0 -2.248 0.852c-0.885 0.852 -0.885 1.306 -0.885 2.215v8.337zm11.129 0V17.396h3.644l0.157 2.845q0.59 -1.599 1.73 -2.333 1.141 -0.734 2.451 -0.734 2.779 0 3.775 3.29 0.616 -1.691 1.907 -2.491 1.291 -0.799 2.799 -0.8 2.019 0 3.349 1.304 1.331 1.305 1.331 3.69v9.884h-3.946V22.915q0 -1.232 -0.669 -1.842t-1.652 -0.61q-1.114 0 -1.763 0.708t-0.649 1.861v9.019h-3.802V22.81q0 -1.075 -0.636 -1.711t-1.645 -0.636q-1.035 0 -1.743 0.701t-0.708 2.025v8.862h-3.932zm31.121 0.289q-2.241 0 -3.867 -0.918c-1.626 -0.918 -1.916 -1.481 -2.497 -2.609s-0.872 -2.464 -0.872 -4.012q0 -2.268 0.872 -3.972c0.872 -1.704 1.398 -2.023 2.451 -2.661s2.292 -0.957 3.717 -0.957q1.914 0 3.473 0.813t2.484 2.464 0.924 4.155v1.101h-10.028q0.066 1.796 0.996 2.713 0.931 0.918 2.412 0.918 1.036 0 1.777 -0.439 0.74 -0.439 1.055 -1.291l3.565 0.668q-0.537 1.822 -2.222 2.923c-1.685 1.101 -2.536 1.102 -4.24 1.102m-3.317 -9.059h6.214q-0.144 -1.429 -0.918 -2.268 -0.774 -0.839 -2.137 -0.839 -1.416 0 -2.228 0.872 -0.813 0.872 -0.931 2.235m12.047 8.77v-2.386l7.223 -8.993v-0.105h-7V17.395h11.759v2.609l-6.817 8.77v0.105h7.066v3.172h-12.231zm15.377 0v-2.386l7.223 -8.993v-0.105h-7V17.395h11.759v2.609l-6.817 8.77v0.105h7.066v3.172h-12.231zm21.499 0.289q-2.202 0 -3.815 -0.95 -1.612 -0.95 -2.484 -2.648 -0.872 -1.697 -0.872 -3.952 0 -2.268 0.872 -3.972c0.872 -1.704 1.409 -2.021 2.484 -2.654q1.613 -0.95 3.815 -0.95 2.203 0 3.815 0.95t2.484 2.654 0.872 3.972q0 2.255 -0.872 3.952 -0.872 1.698 -2.484 2.648t-3.815 0.95m0 -3.094q1.574 0 2.373 -1.272t0.8 -3.199q0 -1.94 -0.8 -3.205t-2.373 -1.265 -2.366 1.265 -0.793 3.205q0 1.927 0.793 3.199c0.793 1.271 1.318 1.272 2.366 1.272"/></svg>