<?xml version="1.0"?>
<svg width="1600" height="600" xmlns="http://www.w3.org/2000/svg" xmlns:svg="http://www.w3.org/2000/svg">
 <g class="layer">
  <title>Layer 1</title>
  <path d="m247.37,4.07c3.06,1.58 4.25,2.97 6.57,5.78c0.71,3.11 0.71,3.11 1.1,5.78c1.19,0.09 1.19,0.09 2.38,0.17c9.41,0.75 18.64,2.14 27.96,3.71c7.29,1.2 14.57,2.17 21.89,3.03c17.16,2.02 34.21,4.64 51.26,7.39c5.21,0.84 10.43,1.68 15.64,2.52c2.76,0.43 5.51,0.89 8.26,1.34c1.22,0.2 2.46,0.4 3.71,0.61c1.08,0.17 2.14,0.34 3.27,0.53c2.49,0.43 2.49,0.43 4.75,0.37c0.75,-1.37 0.75,-1.37 1.51,-2.73c1.94,-3.32 2.68,-4.22 6.16,-5.36c4.05,-0.39 6.87,-0.33 10.68,1.23c3.43,3.12 4.48,5.76 5.75,10.34c-0.33,1.4 -0.68,2.78 -1.03,4.22c-0.44,3.32 -0.29,4.64 1.41,7.53c2.38,2.87 4.89,5.54 7.48,8.21c0.97,1.02 1.92,2.07 2.92,3.12c2.64,2.81 5.32,5.59 7.99,8.37c2.81,2.92 5.57,5.85 8.35,8.79c4.67,4.91 9.35,9.81 14.05,14.7c5.43,5.65 10.84,11.34 16.24,17.03c5.18,5.48 10.38,10.95 15.59,16.4c2.22,2.33 4.43,4.64 6.64,6.99c3.1,3.25 6.19,6.47 9.3,9.7c0.9,0.98 1.83,1.94 2.78,2.95c0.84,0.87 1.68,1.74 2.56,2.64c0.73,0.76 1.46,1.52 2.21,2.31c2,1.77 2,1.77 4.41,1.15c0.68,-0.28 1.37,-0.56 2.06,-0.84c4.97,-0.57 8.68,-0.71 13.08,1.96c3.56,4.21 4.48,6.83 4.38,12.5c-1.22,4.81 -2.87,6.74 -6.51,9.83c-0.73,0 -1.44,0 -2.19,0c0.19,1.15 0.37,2.31 0.56,3.51c1.76,11.04 3.52,22.06 5.27,33.1c0.9,5.67 1.81,11.34 2.7,17c7.19,44.98 7.19,44.98 9.8,67.59c0.87,7.31 2.1,14.55 3.27,21.8c0.87,5.56 1.67,10.85 1.4,16.52c0.79,-0.11 1.57,-0.25 2.4,-0.36c3.08,0.36 3.08,0.36 6.16,2.45c3.48,5.34 3.4,10.11 2.4,16.4c-1.97,3.46 -3.18,5.14 -6.57,6.94c-2.92,0.16 -5.83,0.05 -8.76,0c-0.59,2.13 -0.59,2.13 -1.19,4.29c-2.32,7.34 -5.89,13.9 -9.43,20.64c-1.4,2.69 -2.78,5.36 -4.16,8.04c-0.67,1.29 -1.32,2.58 -2.02,3.91c-2.3,4.5 -4.49,9.04 -6.62,13.63c-2.7,5.78 -5.46,11.47 -8.37,17.13c-4.95,9.7 -9.57,19.56 -14.21,29.42c-1.05,2.25 -2.11,4.5 -3.18,6.77c-0.35,0.75 -0.7,1.49 -1.06,2.25c-2.06,4.41 -4.25,8.76 -6.52,13.06c-0.51,0.99 -1.03,1.97 -1.56,3c-1,1.93 -2.03,3.85 -3.08,5.76c-2.81,5.09 -2.81,5.09 -2.52,10.76c0.48,0.79 0.97,1.57 1.46,2.39c1.57,3.32 1.43,5.56 1.1,9.25c-2.24,4.22 -3.84,6.55 -7.67,9.25c-2.29,0.34 -2.29,0.34 -4.79,0.36c-0.83,0.02 -1.65,0.05 -2.49,0.06c-2.57,-0.42 -2.57,-0.42 -5.3,-2.3c-2.62,-1.93 -2.62,-1.93 -5.27,-0.98c-0.89,0.5 -1.78,0.98 -2.68,1.49c-1.57,0.84 -1.57,0.84 -3.18,1.69c-1.83,0.98 -1.83,0.98 -3.67,1.99c-1.46,0.73 -2.95,1.46 -4.43,2.17c-7.4,3.59 -14.67,7.27 -21.8,11.41c-3.84,2.24 -7.59,4.24 -11.7,5.85c-5.56,2.2 -10.67,5.14 -15.89,8.09c-7.16,4.05 -14.37,7.73 -21.86,11.06c-5.57,2.52 -10.89,5.4 -16.21,8.45c-16.84,9.61 -16.84,9.61 -22.05,9.61c0.1,1.41 0.19,2.81 0.27,4.27c0.02,3.87 -0.24,4.92 -2.25,8.38c-3.76,3.73 -7.21,3.87 -12.26,3.79c-3.19,-0.37 -5.18,-1.63 -7.67,-3.73c-2.19,-3.46 -2.19,-3.46 -2.19,-8.09c-1.06,-0.06 -2.13,-0.11 -3.22,-0.17c-9.92,-0.57 -19.72,-1.57 -29.58,-2.92c-11.92,-1.63 -23.83,-3.11 -35.8,-4.15c-1.57,-0.14 -1.57,-0.14 -3.19,-0.28c-2.73,-0.23 -5.46,-0.42 -8.18,-0.59c-2.13,-0.14 -2.13,-0.14 -4.3,-0.26c-3.76,0.3 -4.75,0.87 -7.27,3.73c-2.64,2.61 -3.48,3.4 -7.13,4.19c-5.51,-1.24 -8.89,-3.93 -11.99,-8.82c-0.13,-3.68 -0.13,-3.68 0,-6.94c-2.22,-0.76 -4.45,-1.54 -6.67,-2.28c-2.38,-0.89 -4.72,-1.86 -7.02,-2.9c-6.7,-3.43 -6.7,-3.43 -13.67,-3.18c-1.56,1.54 -2.98,3.23 -4.4,4.91c-4.32,1.27 -6.56,1.66 -10.68,-0.22c-2.51,-2.14 -4.1,-3.8 -5.75,-6.72c0.06,-2.95 0.06,-2.95 0.48,-6.13c0.13,-4.91 0.13,-4.91 -2.41,-8.8c-1.86,-1.34 -3.76,-2.59 -5.7,-3.79c-3.64,-2.27 -6.87,-4.89 -10.18,-7.64c-6.84,-5.62 -13.86,-10.93 -20.92,-16.21c-2.76,-2.07 -5.49,-4.16 -8.24,-6.27c-0.97,-0.73 -1.92,-1.48 -2.92,-2.22c-1.76,-1.38 -3.51,-2.79 -5.21,-4.27c-4.19,-3.84 -4.19,-3.84 -9.41,-4.72c-1.52,0.71 -3.03,1.46 -4.52,2.24c-5.45,0.43 -8.81,0.19 -13.14,-3.46c-2.54,-3.46 -2.49,-7.03 -2.59,-11.34c0.4,-2.55 0.4,-2.55 2.29,-5.75c1.86,-3.79 1.86,-3.79 0.16,-8.06c-0.75,-1.6 -1.51,-3.2 -2.32,-4.77c-0.41,-0.87 -0.83,-1.72 -1.24,-2.61c-3.16,-6.55 -6.57,-12.93 -10.05,-19.3c-3.78,-6.94 -6.97,-14.15 -10.14,-21.4c-2.54,-5.73 -5.24,-11.2 -8.54,-16.49c-1.33,-2.44 -2.38,-4.8 -3.44,-7.38c-3.44,-8.31 -7.62,-16.24 -11.67,-24.22c-3.06,-6.12 -5.81,-11.79 -7.22,-18.57c-0.95,0.26 -1.89,0.53 -2.87,0.79c-4.54,0.43 -6.51,-0.48 -10.27,-3.11c-3.03,-5.05 -3.06,-10.4 -2.19,-16.18c2.62,-3.87 4.24,-5.4 8.56,-6.72c0.79,-0.06 1.59,-0.16 2.4,-0.22c0.14,-1.48 0.27,-2.92 0.41,-4.44c0.76,-7.16 2.02,-14.19 3.27,-21.27c1.14,-6.68 2.06,-13.32 2.84,-20.05c2.21,-18.87 5.49,-37.5 8.78,-56.19c0.76,-4.3 1.51,-8.62 2.24,-12.92c0.22,-1.34 0.46,-2.64 0.71,-4.01c0.21,-1.2 0.41,-2.42 0.62,-3.66c0.19,-1.06 0.37,-2.13 0.57,-3.23c0.49,-2.61 0.49,-2.61 -0.83,-4.86c-0.9,-0.81 -1.81,-1.61 -2.75,-2.45c-3.7,-4.5 -3.84,-6.68 -3.84,-12.58c1.37,-3.25 1.37,-3.25 3.29,-5.78c0.43,-0.67 0.86,-1.34 1.3,-2.02c3.21,-2.33 6.91,-2.56 10.75,-2.61c1.08,0.39 2.17,0.76 3.29,1.15c0.33,-1.18 0.33,-1.18 0.68,-2.38c1.65,-3.71 3.64,-6.13 6.21,-9.15c1.86,-2.31 3.41,-4.67 4.97,-7.22c3.25,-5.2 6.65,-10.25 10.13,-15.29c0.9,-1.32 0.9,-1.32 1.83,-2.66c3.25,-4.75 6.52,-9.49 9.83,-14.21c0.65,-0.93 1.3,-1.88 1.97,-2.84c1.25,-1.8 2.51,-3.6 3.78,-5.4c0.57,-0.82 1.13,-1.65 1.71,-2.47c0.75,-1.07 0.75,-1.07 1.51,-2.17c1.29,-2.25 1.92,-4.13 2.3,-6.72c-0.37,-0.39 -0.73,-0.76 -1.1,-1.15c-0.6,-5.68 -0.81,-10.15 2.06,-15.09c3.27,-3.15 5,-3.56 9.32,-3.54c1.25,-0.02 1.25,-0.02 2.56,-0.02c2.51,0.16 2.51,0.16 4.72,0.99c2.32,0.61 2.32,0.61 4.45,-1.35c0.78,-0.81 1.57,-1.61 2.38,-2.45c3.24,-3.28 6.33,-5.95 10.13,-8.45c2.7,-2.07 3.68,-2.95 4.48,-6.41c0.13,-2.02 0.21,-4.04 0.25,-6.06c0.3,-4.01 1.79,-5.85 4.59,-8.48c4.57,-2.87 8.05,-2.34 13.14,-1.15c1.08,0.76 2.17,1.52 3.29,2.31c5.78,-0.33 10.4,-2.83 15.48,-5.5c5.24,-2.72 10.48,-5.26 15.89,-7.59c8.6,-3.73 16.89,-8.09 25.24,-12.42c2.05,-1.06 4.11,-2.11 6.18,-3.18c1.27,-0.65 2.54,-1.3 3.86,-1.99c2.91,-1.41 5.73,-2.56 8.76,-3.6c3.6,-1.15 3.6,-1.15 4.62,-4.01c0.05,-0.89 0.11,-1.77 0.16,-2.69c0.54,-3.82 0.75,-5.09 3.08,-8.23c4.79,-2.42 9.03,-2.69 14.24,-1.66l0.08,-0.03zm6.57,16.18c4.08,4.52 8.38,8.37 13.14,12.06c0.65,0.54 1.32,1.09 2,1.65c2.17,1.75 2.17,1.75 5.67,3.62c3,-0.65 3,-0.65 5.48,-2.31c3.65,-0.48 6.35,-0.84 9.59,1.21c2.4,2.07 4.37,3.94 5.75,6.88c8.37,-0.28 16.7,-0.56 25.07,-0.84c3.87,-0.12 7.76,-0.26 11.64,-0.39c16.99,-0.56 33.97,-1.16 50.94,-2.24c0,-0.39 0,-0.76 0,-1.15c-0.59,-0.06 -1.19,-0.14 -1.81,-0.2c-15.7,-1.82 -31.31,-4.1 -46.93,-6.58c-0.94,-0.16 -1.89,-0.3 -2.84,-0.47c-7.83,-1.24 -15.64,-2.52 -23.45,-3.77c-5.87,-0.96 -11.75,-1.89 -17.62,-2.84c-2.7,-0.43 -5.4,-0.87 -8.11,-1.3c-9.49,-1.54 -18.91,-2.73 -28.51,-3.32zm-29.96,6.3c-1.16,0.61 -2.33,1.2 -3.52,1.82c-1.83,0.96 -1.83,0.96 -3.7,1.93c-7.97,4.15 -15.95,8.07 -24.18,11.63c-5.7,2.52 -11.29,5.26 -16.91,8.03c-2.29,1.1 -4.56,2.22 -6.84,3.32c-1,0.48 -1.98,0.98 -3,1.48c-2.75,1.3 -5.51,2.5 -8.3,3.65c4.79,1.48 9.22,0.92 14.15,0.4c1.03,-0.11 2.06,-0.2 3.13,-0.31c16.56,-1.74 33.05,-3.99 49.55,-6.16c3.68,-0.48 7.37,-0.98 11.05,-1.44c3.57,-0.47 7.16,-0.93 10.73,-1.4c1.68,-0.23 3.38,-0.45 5.08,-0.67c2.35,-0.31 4.72,-0.61 7.06,-0.93c1.32,-0.17 2.67,-0.36 4.05,-0.53c3.41,-0.48 6.83,-1.06 10.24,-1.68c0.37,-1.52 0.73,-3.06 1.1,-4.63c-0.75,-0.48 -1.49,-0.98 -2.24,-1.49c-7.06,-4.69 -13.97,-9.56 -20.77,-14.69c-0.95,0.56 -0.95,0.56 -1.92,1.13c-3.73,1.79 -7.19,1.79 -11.22,1.18c-2.52,-1.74 -2.52,-1.74 -4.38,-3.46c-3.86,0 -5.7,1.04 -9.14,2.83zm139.32,17.75c-0.87,0.06 -1.75,0.11 -2.67,0.16c-4.64,0.25 -9.27,0.51 -13.91,0.78c-4.79,0.26 -9.56,0.53 -14.35,0.78c-3.7,0.2 -7.37,0.4 -11.07,0.61c-1.76,0.11 -3.52,0.2 -5.29,0.3c-2.46,0.12 -4.92,0.26 -7.37,0.42c-1.4,0.06 -2.79,0.16 -4.22,0.23c-3.57,0.2 -3.57,0.2 -6.68,2.76c12.1,5.76 12.1,5.76 24.51,10.7c8.92,3.26 17.54,7.25 26.24,11.18c6.52,2.92 13.03,5.78 19.7,8.34c7.76,2.98 15.3,6.4 22.88,9.88c7.43,3.38 14.92,6.47 22.53,9.41c3.03,1.16 6.05,2.41 9.03,3.68c1.08,-1.15 2.17,-2.28 3.29,-3.46c-2.29,-7.69 -5.06,-15.03 -8.14,-22.39c-3.4,-8.26 -6.67,-16.47 -9.38,-25c-1.38,-0.11 -2.76,-0.25 -4.18,-0.36c-4.3,-0.57 -4.3,-0.57 -6.64,-2.31c-1.33,-2.11 -2.37,-4.3 -3.43,-6.58c-10.3,-0.17 -20.56,0.36 -30.85,0.93l-0.02,-0.03zm49.47,7.17c1.1,2.31 1.1,2.31 1.1,2.31l-1.1,-2.31zm-155.09,0.93c-1.17,0.16 -1.17,0.16 -2.37,0.3c-2.49,0.31 -5,0.62 -7.48,0.95c-10.62,1.34 -21.21,2.58 -31.86,3.56c-11.89,1.1 -23.77,2.42 -35.61,3.96c-2.25,0.3 -4.51,0.56 -6.76,0.82c-3.32,0.39 -6.64,0.82 -9.95,1.24c-1,0.11 -2.02,0.22 -3.06,0.34c-2.64,0.37 -4.95,0.75 -7.45,1.79c-2.03,3.32 -2.03,3.32 -3.29,6.94c-2.95,2.17 -2.95,2.17 -5.48,3.46c0.71,13.91 2.64,27.62 4.45,41.4c0.32,2.38 0.62,4.77 0.94,7.14c0.76,5.79 1.51,11.57 2.29,17.34c7.57,2.66 18.08,-2.64 25.19,-5.78c5.32,-3.11 9.78,-7.24 14.24,-11.55c0.9,-0.84 1.83,-1.69 2.75,-2.56c1.64,-1.52 3.25,-3.06 4.87,-4.61c2.79,-2.61 5.76,-4.89 8.78,-7.22c2.48,-2.02 4.78,-4.15 7.08,-6.35c3.91,-3.71 7.92,-7.13 12.1,-10.5c3.38,-2.79 6.62,-5.71 9.87,-8.65c4.75,-4.27 9.56,-8.43 14.51,-12.42c2.92,-2.39 5.78,-4.88 8.64,-7.36c3.41,-2.98 6.83,-5.82 10.48,-8.46c1.02,-0.79 2.03,-1.57 3.08,-2.38c0,-0.76 0,-1.52 0,-2.31c-5.4,-0.09 -10.59,0.25 -15.95,0.93l0,-0.02zm35.69,1.38c-1.81,2.02 -1.81,2.02 -3.29,4.63c0.1,2.31 0.1,2.31 1.05,4.61c0.3,0.9 0.62,1.8 0.94,2.73c0.37,0.96 0.71,1.93 1.08,2.92c0.37,1.01 0.71,2.02 1.08,3.04c0.76,2.16 1.54,4.32 2.3,6.44c1.64,4.53 3.22,9.07 4.79,13.63c0.76,2.16 1.51,4.32 2.27,6.49c0.35,0.99 0.7,2 1.06,3.03c0.46,1.3 0.46,1.3 0.94,2.64c1.25,4.05 2.17,8.12 3.13,12.27c13.73,3.37 27.45,6.74 41.18,10.11c3.59,0.89 7.19,1.77 10.78,2.64c3.87,0.96 7.76,1.91 11.65,2.86c1.62,0.4 1.62,0.4 3.29,0.81c1.97,0.48 3.94,0.95 5.92,1.41c1.91,0.47 3.79,0.98 5.68,1.54c5.08,1.48 5.08,1.48 10.16,0.7c2.03,-1.29 3.76,-2.69 5.56,-4.3c0.65,-0.54 1.29,-1.07 1.95,-1.63c1.29,-1.09 2.59,-2.19 3.87,-3.31c1.71,-1.46 3.51,-2.79 5.3,-4.13c1,-0.75 2.02,-1.51 3.06,-2.28c0.89,-0.65 1.78,-1.32 2.7,-2c2.06,-2.42 2.06,-2.42 2.33,-6.29c-2.38,-5.95 -5.76,-6.94 -11.22,-9.44c-1.32,-0.56 -2.64,-1.12 -4,-1.69c-1.37,-0.61 -2.73,-1.21 -4.1,-1.83c-8.26,-3.68 -16.61,-7.06 -25.05,-10.2c-8.14,-3.06 -16,-6.77 -23.91,-10.45c-6.65,-3.09 -13.27,-5.79 -20.15,-8.26c-6.91,-2.59 -13.56,-5.9 -20.23,-9.07c-6.59,-3.09 -13.13,-5.59 -20.1,-7.58l-0.05,-0.03zm120.51,0c2.19,7.31 4.78,14.35 7.67,21.38c2.64,6.4 4.97,12.64 6.67,19.39c0.83,2.2 0.83,2.2 3.05,2.78c1.14,0.19 1.14,0.19 2.33,0.39c7.08,2.7 7.08,2.7 9.24,5.5c0.62,2.61 0.62,2.61 0.27,6.52c-0.1,4.32 -0.1,4.32 2.92,6.66c1.19,0.68 2.37,1.37 3.59,2.07c0.64,0.39 1.29,0.76 1.94,1.15c1.37,0.81 2.73,1.6 4.1,2.38c3.18,1.82 6.3,3.74 9.43,5.65c1.29,0.76 2.56,1.52 3.86,2.3c4.49,2.69 8.94,5.47 13.4,8.25c2.33,1.46 4.68,2.9 7.02,4.35c1.54,0.96 3.06,1.91 4.59,2.87c2.13,1.34 4.25,2.66 6.41,3.99c1.84,1.15 1.84,1.15 3.73,2.33c0.97,0.5 1.92,0.99 2.92,1.51c0.73,-0.39 1.44,-0.76 2.19,-1.15c-0.7,-0.65 -1.4,-1.29 -2.13,-1.96c-5.24,-4.88 -10.05,-9.8 -14.54,-15.43c-2.89,-3.37 -6.16,-6.23 -9.41,-9.21c-2.98,-2.89 -5.54,-6.06 -8.14,-9.33c-1.97,-2.3 -4.05,-4.27 -6.3,-6.27c-3,-2.69 -5.6,-5.42 -8.14,-8.6c-2.75,-3.42 -5.62,-6.38 -8.83,-9.32c-3.95,-3.6 -7.32,-7.42 -10.68,-11.65c-2.62,-3.06 -5.56,-5.61 -8.53,-8.26c-2.21,-2.11 -4.08,-4.35 -5.99,-6.77c-3.71,-4.64 -7.91,-8.03 -12.61,-11.49l-0.02,-0.02zm-138.04,2.31c-0.95,1.07 -1.89,2.14 -2.87,3.25c-4.38,4.64 -9.18,8.57 -14.07,12.56c-4.52,3.68 -8.92,7.5 -13.26,11.43c-5.32,4.81 -10.76,9.35 -16.34,13.82c-4.05,3.25 -7.87,6.65 -11.65,10.23c-2.24,2.07 -4.57,3.96 -6.94,5.87c-3.52,2.84 -6.84,5.81 -10.13,8.96c-3.59,3.42 -7.16,6.35 -11.29,9.02c2.75,1.44 3.62,1.02 6.57,0.34c0.94,-0.22 1.86,-0.43 2.83,-0.65c1.54,-0.39 1.54,-0.39 3.13,-0.76c1.08,-0.25 2.17,-0.51 3.3,-0.78c7.05,-1.66 14.1,-3.37 21.15,-5.09c0.83,-0.2 1.65,-0.4 2.51,-0.61c4.11,-0.99 8.24,-2 12.35,-3.01c30.24,-7.41 30.24,-7.41 43.48,-7.06c0.94,0.02 1.89,0.02 2.86,0.02c5.72,0.06 11.22,0.56 16.86,1.43c-0.22,-0.65 -0.44,-1.32 -0.67,-2c-0.67,-2.02 -1.33,-4.04 -2,-6.04c-0.78,-2.38 -1.57,-4.72 -2.37,-7.08c-2.13,-6.37 -4.11,-12.73 -5.87,-19.24c-0.52,-1.88 -0.52,-1.88 -1.08,-3.79c-0.67,-2.41 -1.3,-4.81 -1.91,-7.25c-1.79,-6.4 -1.79,-6.4 -6.37,-10.73c-2.73,-1.15 -5.37,-2.1 -8.22,-2.83l-0.02,0zm-141.32,19.66c-2.6,2.34 -4.65,4.52 -6.84,7.22c-0.62,0.75 -1.25,1.48 -1.89,2.24c-4.49,5.36 -8.8,10.85 -13.03,16.44c-3.89,5.02 -8.05,9.75 -12.18,14.55c-4.59,4.6 -4.59,4.6 -6.57,10.4c-0.65,0.3 -1.3,0.56 -1.97,0.87c-2.79,1.68 -4.03,3.32 -5.91,6.07c-2.84,4.02 -5.81,7.79 -9.03,11.49c-3.33,3.84 -6.48,7.75 -9.51,11.85c-2.6,3.46 -5.21,6.68 -8.22,9.75c-3.84,3.93 -7.72,8.15 -10.27,13.14c0.37,1.15 0.73,2.28 1.1,3.46c8.29,-1.49 16.45,-3.34 24.62,-5.45c1.16,-0.3 2.32,-0.61 3.52,-0.9c3.68,-0.93 7.35,-1.88 11.02,-2.83c4.83,-1.24 9.67,-2.47 14.49,-3.71c1.16,-0.3 2.32,-0.59 3.51,-0.9c7.59,-1.91 15.16,-3.65 22.83,-5.12c3.44,-0.78 6.59,-1.6 9.84,-3.06c0.79,-2.67 1.52,-5.37 2.19,-8.09c0.92,-0.71 1.86,-1.43 2.81,-2.17c2.95,-2.16 2.95,-2.16 3.06,-5.4c-0.21,-1.71 -0.21,-1.71 -0.43,-3.46c-0.22,-2 -0.22,-2 -0.46,-4.05c-0.19,-1.51 -0.4,-3.01 -0.6,-4.57c-0.21,-1.71 -0.41,-3.42 -0.6,-5.14c-0.68,-5.67 -1.4,-11.32 -2.14,-16.97c-3.08,-23.87 -3.08,-23.87 -3.84,-34.55c-2.57,-0.85 -2.57,-0.85 -5.48,-1.15l-0.02,0.05zm-21.91,15.03c-0.37,1.52 -0.73,3.06 -1.1,4.63c1.08,-0.76 2.17,-1.52 3.29,-2.31c0,-0.76 0,-1.52 0,-2.31c-0.73,0 -1.44,0 -2.19,0zm-19.45,21.65c-0.6,0.89 -1.22,1.79 -1.86,2.7c-0.65,0.95 -1.3,1.88 -1.98,2.86c-0.64,0.95 -1.25,1.88 -1.92,2.86c-0.57,0.82 -1.13,1.65 -1.71,2.5c-1.27,1.85 -2.52,3.73 -3.76,5.59c0.37,0.76 0.73,1.52 1.1,2.31c0.7,-0.84 0.7,-0.84 1.41,-1.69c0.95,-1.15 0.95,-1.15 1.94,-2.34c0.7,-0.84 1.4,-1.68 2.1,-2.55c1.46,-1.74 2.92,-3.51 4.4,-5.25c0.68,-0.82 1.37,-1.63 2.06,-2.47c0.62,-0.75 1.25,-1.51 1.91,-2.28c1.6,-1.88 1.6,-1.88 2.6,-4.22c-4.3,-0.54 -4.3,-0.54 -6.3,1.99l0.03,0zm348.09,6.1c-1.08,1.71 -1.08,1.71 -2.19,3.46c0.52,2.97 0.52,2.97 1.86,6.35c0.24,0.68 0.48,1.35 0.73,2.07c3.32,9.18 6.94,18.23 10.48,27.31c2.76,7.11 5.43,14.21 7.76,21.49c3.19,9.97 7.03,19.63 10.83,29.35c3.75,9.63 7.24,19.3 10.59,29.08c1.86,5.43 3.87,10.79 5.95,16.13c2.65,0.12 2.65,0.12 5.48,-1.15c1.43,-3.04 2.4,-5.75 3.35,-8.96c3.02,-9.41 6.43,-18.57 10.1,-27.72c4.03,-10.11 8.03,-20.23 11.48,-30.59c0.27,-0.79 0.52,-1.57 0.79,-2.38c1.25,-3.82 1.25,-3.82 1.67,-7.81c-0.68,-0.65 -1.37,-1.29 -2.05,-1.96c-2.33,-2.67 -2.33,-2.67 -3.1,-6.55c-1.91,-5.59 -4.37,-6.88 -9.18,-9.55c-0.68,-0.42 -1.38,-0.84 -2.1,-1.24c-2.19,-1.29 -4.4,-2.56 -6.6,-3.82c-7.3,-4.22 -14.48,-8.65 -21.64,-13.14c-7.83,-4.91 -15.67,-9.69 -23.73,-14.18c-3.56,-1.99 -7.03,-4.08 -10.51,-6.21l0.03,0zm-17.53,1.15c-0.48,0.45 -0.95,0.89 -1.44,1.35c-4.1,3.77 -8.26,7.02 -12.8,10.2c-2.6,2.25 -5.14,4.58 -7.67,6.94c4.24,3.23 4.24,3.23 14.24,5.78c0.37,28.23 0.73,56.46 1.1,85.54c13.41,6.77 13.41,6.77 26.96,12.76c6.59,2.79 12.99,6.13 19.42,9.33c5.67,2.78 11.08,5.26 17.16,6.82c2.57,-3.2 2.57,-3.2 1.67,-6.41c-0.41,-1.27 -0.83,-2.55 -1.25,-3.84c-0.24,-0.73 -0.48,-1.46 -0.73,-2.2c-3.13,-9.25 -6.84,-18.29 -10.45,-27.36c-3.56,-8.96 -6.87,-17.87 -9.62,-27.16c-2.6,-8.35 -6,-16.4 -9.18,-24.52c-2.64,-6.77 -5.21,-13.51 -7.48,-20.42c-0.79,-2.39 -1.6,-4.77 -2.4,-7.16c-0.22,-0.71 -0.48,-1.43 -0.71,-2.19c-2.54,-8.9 -2.54,-8.9 -8.14,-15.5c-2.64,-0.75 -2.64,-0.75 -6.48,-0.82c-0.73,-0.39 -1.44,-0.76 -2.19,-1.15zm-290.25,47.58c-1.13,0.3 -2.25,0.57 -3.41,0.89c-1.24,0.31 -2.46,0.64 -3.73,0.96c-2.62,0.67 -5.22,1.34 -7.84,2c-4.11,1.06 -8.22,2.11 -12.35,3.18c-15.43,3.96 -30.83,7.92 -46.48,10.84c-3.13,0.61 -5.6,1.16 -8.4,2.78c-1.44,2.73 -2.06,5.05 -2.56,8.14c-0.24,0.75 -0.48,1.49 -0.73,2.27c-2.27,0.89 -2.27,0.89 -4.38,1.15c2.27,10.29 4.59,20.59 7.05,30.84c1,4.19 1.94,8.37 2.81,12.59c3.38,16.27 7.33,32.34 11.41,48.43c2.59,10.2 5.03,20.39 7.19,30.68c1.44,0 2.89,0 4.38,0c8.43,-17.39 8.43,-17.39 16.1,-35.19c2.7,-6.74 5.78,-13.14 9.13,-19.56c3,-5.84 5.51,-11.82 7.95,-17.93c2.75,-6.77 5.95,-13.23 9.33,-19.67c2.14,-4.11 3.97,-8.2 5.57,-12.56c2.98,-8.07 6.84,-15.68 10.62,-23.38c2.75,-5.7 5.37,-11.43 7.65,-17.34c0.59,-1.51 0.59,-1.51 1.17,-3.04c0.68,-2.84 0.68,-2.84 -1,-5.4c-3.05,-3.17 -5.59,-1.63 -9.49,-0.62l0,-0.03zm15.29,6.77c-6.73,12.86 -6.73,12.86 -12.46,26.23c-2.49,6.6 -5.46,12.87 -8.49,19.21c-7.79,16.29 -15.27,32.73 -22.53,49.28c-2.95,6.69 -6.05,13.31 -9.19,19.89c-2.87,6.04 -5.6,12.11 -8.26,18.26c-1.03,2.39 -2.11,4.77 -3.22,7.13c-0.79,1.69 -0.79,1.69 -1.59,3.42c-0.48,0.99 -0.95,1.99 -1.43,3.01c-1.03,2.69 -1.03,2.69 0.13,5.23c0.43,0.7 0.87,1.38 1.3,2.1c0.37,0.76 0.73,1.52 1.1,2.31c15.97,-1.65 31.83,-3.68 47.66,-6.49c1.43,-0.25 2.84,-0.51 4.32,-0.78c6.97,-1.2 6.97,-1.2 13.76,-3.14c0,-48.07 0,-96.13 0,-145.66c-0.37,0 -0.73,0 -1.1,0zm375.76,3.46c-0.4,1.13 -0.79,2.27 -1.21,3.43c-3.19,9.07 -6.49,18.1 -9.92,27.08c-2.49,6.58 -4.97,13.17 -7.43,19.75c-0.79,2.13 -1.6,4.25 -2.4,6.38c-2.7,7.27 -5.27,14.52 -7.53,21.96c1.08,0.39 2.17,0.76 3.29,1.15c1.75,4.19 1.38,9.38 1.1,13.87c-0.27,0.75 -0.56,1.49 -0.83,2.25c-0.56,2.59 -0.56,2.59 1.56,5.03c0.87,0.93 1.75,1.88 2.64,2.83c3.05,3.38 5.99,6.68 8.57,10.48c2.84,4.15 5.95,8.03 9.1,11.93c4.35,5.37 8.6,10.84 12.73,16.4c0.51,0.68 1,1.35 1.54,2.07c2.75,3.73 5.43,7.48 8.05,11.32c0.89,1.2 1.76,2.38 2.67,3.6c0.73,0 1.44,0 2.19,0c-1.22,-13.54 -2.79,-26.94 -4.97,-40.36c-0.46,-2.87 -0.9,-5.73 -1.37,-8.6c-0.97,-6.1 -1.94,-12.2 -2.92,-18.31c-1.29,-8.03 -2.56,-16.07 -3.83,-24.1c-0.22,-1.46 -0.22,-1.46 -0.48,-2.93c-2.14,-13.7 -4.05,-27.39 -5.52,-41.19c-0.89,-8.09 -2.37,-16.06 -3.94,-24.02c-0.37,0 -0.73,0 -1.1,0zm-486.4,25.43c-0.13,0.98 -0.27,1.97 -0.41,2.98c-2.84,20.34 -5.87,40.65 -9.24,60.91c-0.14,0.81 -0.27,1.61 -0.41,2.45c-1.37,8.18 -2.75,16.37 -4.11,24.55c-0.4,2.34 -0.79,4.7 -1.19,7.05c-0.48,2.9 -0.97,5.81 -1.46,8.71c-1,5.9 -1.94,11.83 -2.67,17.79c-0.11,0.89 -0.22,1.79 -0.33,2.7c-0.1,2.75 -0.1,2.75 2.7,5.79c0.94,0.76 1.89,1.52 2.87,2.31c0.37,0.76 0.73,1.52 1.1,2.31c5.1,-0.62 10.18,-1.3 15.26,-2.02c1.73,-0.25 3.46,-0.47 5.19,-0.68c2.49,-0.3 4.98,-0.65 7.48,-1.02c0.76,-0.09 1.54,-0.17 2.35,-0.25c2.49,-0.33 2.49,-0.33 5.89,-1.8c2.03,-3.96 2.03,-3.96 3.29,-8.09c1.08,-0.76 2.17,-1.52 3.29,-2.31c-0.73,-6.18 -1.94,-12.1 -3.41,-18.15c-0.22,-0.95 -0.44,-1.89 -0.68,-2.87c-0.48,-2.02 -0.97,-4.04 -1.44,-6.06c-1.27,-5.26 -2.52,-10.53 -3.78,-15.79c-0.37,-1.54 -0.37,-1.54 -0.75,-3.11c-1.65,-6.94 -3.25,-13.9 -4.79,-20.87c-2.29,-10.22 -4.68,-20.4 -7.13,-30.56c-0.44,-1.88 -0.9,-3.73 -1.33,-5.61c-0.62,-2.61 -1.25,-5.23 -1.89,-7.86c-0.29,-1.2 -0.29,-1.2 -0.57,-2.41c-1.1,-4.5 -1.1,-4.5 -3.79,-8.12zm379.04,32.37c0,31.66 0,63.32 0,95.94c7.59,-6.01 7.59,-6.01 14.24,-12.72c3.91,-4.22 7.84,-7.86 12.38,-11.29c2.35,-1.8 4.37,-3.73 6.24,-6.06c0,-0.76 0,-1.52 0,-2.31c0.59,-0.25 1.17,-0.5 1.78,-0.76c3.56,-2.1 6.32,-4.97 9.24,-7.9c3.16,-3.14 6.18,-6.13 9.8,-8.66c0,-0.76 0,-1.52 0,-2.31c0.64,-0.3 1.27,-0.56 1.92,-0.87c3.02,-1.79 4.83,-3.06 6.84,-6.07c0.11,-4.8 0.11,-4.8 -1.1,-9.25c-2.52,-2.38 -5.37,-3.56 -8.49,-4.84c-0.86,-0.39 -1.7,-0.78 -2.57,-1.16c-5.84,-2.62 -11.81,-4.97 -17.78,-7.3c-6.51,-2.78 -12.8,-6.09 -19.08,-9.36c-0.95,-0.48 -1.89,-0.98 -2.87,-1.48c-0.86,-0.43 -1.7,-0.89 -2.56,-1.34c-2.92,-1.38 -2.92,-1.38 -7.99,-2.25zm61.96,43.51c-1.81,1.75 -3.59,3.56 -5.32,5.4c-3.06,3.21 -6.21,6.32 -9.4,9.39c-0.59,0.56 -1.16,1.1 -1.76,1.69c-4.83,4.64 -9.73,9.18 -14.8,13.56c-0.7,0.62 -1.41,1.24 -2.14,1.88c-0.64,0.56 -1.29,1.1 -1.94,1.68c-1.67,1.43 -1.67,1.43 -1.41,3.82c-0.65,0.3 -1.29,0.61 -1.95,0.93c-2.51,1.43 -4.25,2.97 -6.3,5.03c-0.71,0.7 -1.41,1.43 -2.14,2.14c-0.73,0.73 -1.46,1.48 -2.21,2.24c-1.44,1.46 -2.89,2.92 -4.35,4.36c-0.64,0.65 -1.27,1.29 -1.92,1.97c-1.94,1.83 -1.94,1.83 -4.3,3.51c-2.44,2.16 -2.73,3.28 -3.22,6.54c-0.16,0.93 -0.3,1.88 -0.48,2.83c-0.16,1.01 -0.3,2 -0.46,3.04c-2.78,16.12 -6.52,29.92 -14.67,43.96c-1.94,3.15 -1.94,3.15 -2.92,6.69c16.62,6.82 33.31,13.42 50.15,19.58c1.71,0.62 3.43,1.24 5.14,1.88c2.41,0.89 4.83,1.77 7.22,2.64c0.73,0.26 1.44,0.53 2.17,0.81c4.3,1.54 4.3,1.54 8.7,0.51c0.49,-0.54 1,-1.1 1.51,-1.66c2.21,-2.24 4.41,-3 7.26,-4.11c0.05,-1.26 0.1,-2.52 0.13,-3.82c1.14,-32.51 2.81,-64.97 4.84,-97.43c0.16,-2.34 0.3,-4.7 0.44,-7.06c0.19,-2.89 0.37,-5.78 0.56,-8.66c0.49,-8.03 0.73,-15.99 0.62,-24.05c-3.65,-1.34 -3.65,-1.34 -7.05,0.73zm13.62,-0.73c-1.73,1.83 -1.43,3.82 -1.62,6.37c-0.1,1.1 -0.17,2.22 -0.27,3.35c-0.1,1.21 -0.17,2.42 -0.27,3.66c-0.1,1.24 -0.19,2.5 -0.29,3.77c-0.97,13.06 -1.75,26.13 -2.49,39.22c-0.14,2.5 -0.29,5 -0.43,7.5c-0.37,6.47 -0.75,12.95 -1.11,19.44c-0.38,6.65 -0.76,13.29 -1.14,19.95c-0.76,12.97 -1.49,25.95 -2.24,38.91c2.08,0.73 2.08,0.73 4.38,1.15c2.24,-1.57 2.24,-1.57 4.25,-3.98c0.76,-0.84 1.51,-1.69 2.29,-2.56c2.67,-3.25 5.11,-6.61 7.45,-10.14c1.35,-1.82 1.35,-1.82 3.54,-2.97c0,-0.76 0,-1.52 0,-2.31c0.73,0 1.44,0 2.19,0c1.54,-1.85 3.02,-3.77 4.45,-5.71c3.27,-4.32 6.57,-8.35 10.33,-12.2c4.57,-4.69 8.54,-9.75 12.49,-15c1.97,-2.52 3.98,-4.69 6.27,-6.89c0.86,-0.98 1.71,-1.96 2.6,-2.97c-0.33,-2.28 -0.33,-2.28 -1.1,-4.63c-0.25,-7.31 -0.25,-7.31 0.73,-10.4c0.62,-2.34 0.62,-2.34 -0.65,-4.33c-0.81,-1.01 -0.81,-1.01 -1.64,-2.02c-0.89,-1.13 -0.89,-1.13 -1.81,-2.28c-0.65,-0.79 -1.29,-1.58 -1.97,-2.41c-0.65,-0.84 -1.32,-1.65 -2,-2.52c-1.32,-1.66 -2.65,-3.32 -3.98,-4.97c-2.33,-2.9 -4.62,-5.84 -6.89,-8.77c-0.78,-0.99 -1.54,-1.97 -2.33,-3c-2.92,-3.82 -5.78,-7.67 -8.62,-11.54c-3.86,-5.22 -7.78,-10.31 -11.99,-15.22c-1.57,-1.91 -1.57,-1.91 -3.22,-4.46c-0.81,-1.02 -0.81,-1.02 -1.65,-2.07c-1.08,0 -2.17,0 -3.29,0l0.02,0zm-365.14,49.38c-1.71,0.31 -1.71,0.31 -3.48,0.62c-2.41,0.42 -4.83,0.85 -7.22,1.29c-3.7,0.67 -7.4,1.32 -11.08,1.97c-2.35,0.42 -4.68,0.84 -7.03,1.24c-1.67,0.3 -1.67,0.3 -3.37,0.61c-1.52,0.28 -1.52,0.28 -3.1,0.56c-0.9,0.16 -1.79,0.33 -2.73,0.5c-2.25,0.39 -2.25,0.39 -4.38,1.65c-1.78,3.11 -1.78,3.11 -2.19,6.94c1.79,2.83 3.21,4.64 5.48,6.94c1.29,1.37 1.29,1.37 2.6,2.75c1.84,1.94 3.68,3.87 5.52,5.79c4.11,4.29 8.18,8.56 11.92,13.2c4.1,5.06 8.59,9.66 13.07,14.33c3.87,4.05 7.54,8.21 11.07,12.61c2.94,3.51 6.13,6.74 9.3,10.03c2.14,2.3 4.16,4.64 6.16,7.11c2.98,3.66 6.13,7.08 9.38,10.48c3.94,4.1 7.62,8.31 11.19,12.72c2.98,3.54 6.21,6.82 9.38,10.12c2.95,3.15 5.72,6.46 8.43,9.84c0.56,0.65 1.1,1.32 1.65,2c0.51,0.68 1,1.37 1.51,2.07c0.59,0.47 1.17,0.93 1.78,1.4c2.83,-0.45 2.83,-0.45 5.48,-1.15c3.08,-16.01 3.08,-16.01 0.49,-31.46c-2.59,-2.53 -5.29,-4.55 -8.16,-6.69c-1.83,-2.16 -3.59,-4.38 -5.27,-6.65c-0.78,-1.02 -1.56,-2.03 -2.35,-3.09c-0.73,-0.98 -1.48,-1.97 -2.24,-2.98c-1.11,-1.44 -1.11,-1.44 -2.25,-2.92c-18.54,-24.97 -25.91,-52.56 -27.32,-83.79c-7.65,-0.23 -14.72,0.61 -22.26,1.97l0.02,-0.02zm-80.17,14.07c-5.14,0.89 -9.99,1.38 -15.21,1.37c-3.24,0.33 -4.68,0.7 -7.05,3.07c-1.92,3.31 -2.92,5.71 -3.49,9.56c1.79,6.63 4.97,12.33 8.22,18.28c0.89,1.71 1.78,3.42 2.65,5.12c1.75,3.38 3.52,6.77 5.32,10.12c3.14,5.93 6.13,11.96 9.08,17.98c0.94,1.89 1.89,3.79 2.84,5.68c3.89,7.86 7.62,15.78 11.34,23.73c5.29,11.29 10.68,22.47 16.43,33.52c0.37,0 0.73,0 1.1,0c0.16,-9.88 -0.27,-19.64 -0.98,-29.47c-0.17,-2.56 -0.37,-5.11 -0.54,-7.66c-0.37,-5.45 -0.76,-10.88 -1.14,-16.33c-0.51,-7.13 -1,-14.27 -1.51,-21.41c-0.05,-0.85 -0.13,-1.72 -0.17,-2.61c-1.05,-15.02 -1.76,-30.01 -2.22,-45.06c-4.16,-2.55 -4.16,-2.55 -8.76,-3.46c-0.73,-1.52 -1.44,-3.06 -2.19,-4.63c-4.48,0 -9.27,1.38 -13.68,2.17l-0.02,0.02zm31.21,3.6c-1.08,0.56 -1.08,0.56 -2.19,1.15c-0.46,21.47 1.54,42.96 2.92,64.38c0.35,5.36 0.67,10.73 0.98,16.1c0.37,6.51 0.78,13.01 1.22,19.52c0.16,2.47 0.3,4.95 0.44,7.42c0.19,3.45 0.43,6.89 0.67,10.34c0.05,1.02 0.1,2.05 0.14,3.11c0.21,2.67 0.43,4.95 1.3,7.45c3.13,2.28 3.13,2.28 6.57,3.46c0.73,1.15 1.44,2.28 2.19,3.46c2.65,0.17 4.97,0.11 7.59,-0.14c0.84,-0.06 1.68,-0.12 2.56,-0.2c3.19,-0.25 6.38,-0.53 9.57,-0.82c1.37,-0.11 2.71,-0.25 4.11,-0.36c10.59,-0.93 21.18,-1.93 31.77,-2.93c4.37,-0.42 8.72,-0.82 13.1,-1.24c8.49,-0.79 17.02,-1.6 25.51,-2.41c1.14,-4.61 1.14,-4.61 0.03,-8.96c-0.56,-0.53 -1.11,-1.06 -1.68,-1.61c-0.6,-0.61 -1.22,-1.21 -1.84,-1.83c-0.65,-0.62 -1.32,-1.24 -2,-1.88c-1.33,-1.34 -2.67,-2.66 -3.98,-3.99c-0.65,-0.64 -1.29,-1.27 -1.95,-1.93c-2.08,-2.11 -3.97,-4.33 -5.84,-6.68c-3.46,-4.3 -7.22,-8.21 -11.02,-12.17c-2.84,-3.04 -5.46,-6.23 -8.08,-9.47c-2.21,-2.62 -4.54,-5.09 -6.91,-7.55c-2.94,-3.06 -5.75,-6.13 -8.43,-9.47c-3.73,-4.6 -7.76,-8.82 -11.84,-13.07c-4.72,-4.91 -9.27,-9.86 -13.54,-15.19c-2.92,-3.51 -6.11,-6.72 -9.26,-9.98c-2.17,-2.33 -4.22,-4.7 -6.24,-7.19c-4.3,-5.29 -8.99,-10.15 -13.7,-15.03c-0.73,-0.76 -1.44,-1.52 -2.19,-2.31l0.02,0.03zm460.11,23.12c-0.68,0.93 -1.37,1.86 -2.05,2.83c-2.33,2.97 -2.33,2.97 -4.52,4.11c0,0.76 0,1.52 0,2.31c-0.73,0 -1.44,0 -2.19,0c-1.37,1.65 -2.65,3.37 -3.91,5.14c-3.06,4.16 -6.21,7.97 -9.8,11.63c-4.3,4.41 -7.99,9.1 -11.59,14.15c-2.1,2.61 -2.1,2.61 -4.87,4.92c-2.79,2.38 -4.43,4.61 -6.33,7.81c-0.84,1.38 -0.84,1.38 -1.7,2.79c-0.41,0.7 -0.83,1.4 -1.25,2.11c0.37,0.76 0.73,1.52 1.1,2.31c0.41,4.67 0.46,7.27 -1.86,11.34c-2.64,2.62 -4.65,3.56 -8,4.84c-1.94,16.6 -3.52,32.96 -3.29,49.7c2.51,-3.98 4.6,-8.12 6.72,-12.36c0.44,-0.89 0.87,-1.75 1.32,-2.66c2.78,-5.59 5.48,-11.2 8.11,-16.85c4.3,-9.22 8.99,-18.23 13.65,-27.25c3.81,-7.39 7.48,-14.81 11,-22.38c2.38,-5.08 4.86,-10.06 7.4,-15.05c3.18,-6.26 6.32,-12.53 9.38,-18.85c0.4,-0.79 0.79,-1.6 1.19,-2.42c0.94,-1.93 1.76,-3.91 2.57,-5.9c-0.54,-1.15 -0.54,-1.15 -1.1,-2.31l0.02,0.02zm-145.71,35.84c-1.32,1.74 -1.32,1.74 -2.52,4.11c-3.33,5.54 -7.26,10.2 -11.51,14.95c-0.62,0.7 -1.25,1.4 -1.89,2.11c-0.64,0.7 -1.25,1.4 -1.91,2.11c-0.9,1.02 -0.9,1.02 -1.84,2.08c-2.24,2.36 -2.24,2.36 -4.75,4.36c-5.06,4.36 -7.83,7.93 -8.54,14.97c-0.24,4.38 -0.27,8.76 -0.27,13.15c-0.02,1.89 -0.06,3.8 -0.1,5.71c-0.1,4.97 -0.13,9.95 -0.16,14.92c-0.02,5.09 -0.11,10.19 -0.19,15.26c-0.16,9.98 -0.24,19.94 -0.3,29.91c2.17,1.15 4.33,2.28 6.57,3.46c0,-0.76 0,-1.52 0,-2.31c0.78,-0.25 1.56,-0.53 2.35,-0.79c3.76,-1.83 6.35,-4.43 9.29,-7.44c5.14,-5.19 10.51,-9.61 16.34,-13.93c3.16,-2.48 5.78,-5.25 8.49,-8.25c2.73,-2.86 5.78,-5.22 8.83,-7.66c3.59,-2.98 7.05,-6.12 10.51,-9.27c5.24,-4.77 10.53,-9.43 15.95,-13.96c4.24,-3.57 8.4,-7.27 12.54,-10.95c4.22,-3.68 8.49,-7.3 12.78,-10.88c2.68,-2.52 4.83,-5.19 6.99,-8.21c-1.65,-4.72 -2.7,-6.6 -6.95,-9.02c-1.51,-0.61 -3.02,-1.16 -4.54,-1.71c-0.81,-0.31 -1.64,-0.62 -2.46,-0.95c-2.6,-0.99 -5.21,-1.96 -7.81,-2.9c-1.71,-0.65 -3.43,-1.3 -5.14,-1.97c-8.57,-3.26 -17.18,-6.27 -25.89,-9.02c-5.02,-1.65 -9.87,-3.66 -14.76,-5.7c-3.21,-1.3 -5.64,-2.24 -9.11,-2.24l0.02,0.03zm-189.52,35.84c-2.4,13.73 -2.4,13.73 1.1,26.23c1.08,0.75 1.08,0.75 2.19,1.52c4.16,-1.65 7.97,-3.65 11.84,-5.92c1.08,-0.62 2.14,-1.24 3.24,-1.89c0.81,-0.48 1.6,-0.95 2.44,-1.43c-3.73,-4.19 -7.65,-7.59 -12.05,-10.99c-3.02,-2.38 -5.89,-4.92 -8.76,-7.5l0,-0.02zm265.61,5.26c-0.97,0.89 -1.92,1.79 -2.91,2.69c-1.05,0.96 -2.1,1.93 -3.19,2.9c-1.57,1.49 -1.57,1.49 -3.18,3.01c-0.94,0.89 -1.87,1.77 -2.84,2.69c-1.81,1.74 -3.62,3.46 -5.43,5.2c-3.44,3.23 -7.05,6.26 -10.68,9.27c-3.41,2.87 -6.75,5.85 -10.08,8.85c-5.03,4.52 -10.13,8.93 -15.29,13.26c-6.87,5.81 -13.67,11.75 -20.24,17.95c-4.33,4.04 -8.91,7.72 -13.49,11.4c-4.43,3.56 -8.68,7.25 -12.86,11.15c3.91,1.38 5.18,0.84 9.06,-0.39c1.73,-0.53 1.73,-0.53 3.51,-1.06c1.21,-0.39 2.41,-0.76 3.65,-1.15c7.13,-2.22 14.22,-4.35 21.51,-5.93c9.86,-2.17 19.61,-4.75 29.32,-7.48c2.14,-0.59 4.3,-1.16 6.45,-1.74c3.14,-0.82 6.27,-1.69 9.41,-2.59c0.95,-0.25 1.92,-0.48 2.91,-0.73c5.19,-1.48 5.19,-1.48 8.62,-5.61c0.68,-1.83 1.32,-3.68 1.92,-5.54c1.33,-2.93 2.35,-3.51 5.14,-4.81c4.06,-1.93 4.06,-1.93 4.83,-6.6c0.13,-1.74 0.22,-3.48 0.3,-5.22c0.06,-0.93 0.13,-1.86 0.19,-2.81c0.19,-2.97 0.33,-5.92 0.48,-8.87c0.13,-1.99 0.24,-3.96 0.37,-5.95c0.46,-7.5 0.87,-15 0.79,-22.51c-3.64,-1.3 -4.92,-1.52 -8.26,0.64l-0.02,-0.02zm-120.4,7.53c-10.33,8.65 -20.91,16.18 -32.39,23.06c-1.43,0.89 -2.87,1.77 -4.3,2.66c-22.59,13.87 -22.59,13.87 -34.04,11.21c-2.87,-1.06 -5.52,-2.14 -8.29,-3.46c-0.76,-0.36 -1.51,-0.7 -2.29,-1.07c-7.49,-3.63 -14.48,-8.07 -21.46,-12.69c-3.1,-2.02 -6.24,-3.96 -9.4,-5.9c-1.05,-0.65 -2.1,-1.29 -3.18,-1.96c-1.54,-0.93 -3.11,-1.83 -4.7,-2.67c-2.06,0.7 -2.06,0.7 -4.29,1.91c-1.25,0.64 -1.25,0.64 -2.52,1.29c-0.87,0.45 -1.75,0.9 -2.64,1.37c-0.89,0.43 -1.76,0.89 -2.67,1.35c-2.17,1.1 -4.35,2.22 -6.52,3.34c0,1.91 0,3.82 0,5.78c6.05,3.32 12.08,6.06 18.5,8.52c7.53,2.97 14.99,6.06 22.42,9.3c0.79,0.34 1.6,0.7 2.43,1.06c4,1.74 7.99,3.51 11.97,5.26c8.49,3.73 17.02,7.17 25.7,10.36c6.78,2.48 13.38,5.33 19.99,8.32c9.32,4.16 18.64,8.21 28.27,11.49c1.35,0.47 2.7,0.93 4.08,1.4c3.51,1.37 3.51,1.37 5.99,-0.61c0.65,-0.65 1.3,-1.29 1.98,-1.96c2.32,-0.7 2.32,-0.7 4.38,-1.15c0.87,-27.36 1.25,-54.69 1.1,-82.08c-2.7,0 -6,4.04 -8.14,5.85l0.02,0.02zm-190.54,27.95c-1.71,0.16 -3.43,0.3 -5.14,0.45c-3.59,0.31 -7.16,0.64 -10.73,0.95c-4.57,0.42 -9.16,0.81 -13.75,1.2c-3.54,0.3 -7.08,0.61 -10.6,0.93c-1.7,0.16 -3.38,0.3 -5.06,0.43c-2.37,0.2 -4.72,0.42 -7.08,0.62c-1.33,0.11 -2.67,0.25 -4.05,0.36c-3.11,0.5 -5.13,1.15 -7.79,2.86c4.79,4.27 9.95,7.76 15.27,11.27c0.92,0.61 1.84,1.23 2.79,1.86c5.43,3.59 10.91,7.05 16.51,10.34c4.32,2.56 8.4,5.19 12.4,8.25c5.25,4.02 10.83,7.27 16.53,10.56c5.78,3.38 11.22,7.08 16.65,11.1c2.43,1.63 4.68,2.97 7.27,4.27c5.92,3.04 11.24,7.03 16.65,10.98c0.78,0.56 1.57,1.12 2.38,1.69c1.05,0.76 1.05,0.76 2.13,1.55c2.6,1.2 3.84,0.79 6.45,-0.2c1.13,-4.6 0.97,-8.12 0.22,-12.79c-0.32,-2.07 -0.32,-2.07 -0.65,-4.19c-0.37,-2.22 -0.37,-2.22 -0.73,-4.47c-0.25,-1.54 -0.49,-3.07 -0.75,-4.61c-2.56,-15.68 -5.75,-31.24 -9.05,-46.75c-1.24,-0.33 -2.48,-0.64 -3.75,-0.98c-1.29,-0.43 -2.59,-0.89 -3.92,-1.34c-0.48,-1.01 -0.95,-2 -1.43,-3.03c-0.62,-0.92 -1.22,-1.82 -1.86,-2.75c-9.27,-1.52 -19.56,0.61 -28.89,1.43l-0.02,0.02zm47.34,3.23c-2.41,2.2 -2.41,2.2 -2.13,6.01c0.19,1.58 0.41,3.15 0.65,4.72c0.11,0.85 0.22,1.72 0.33,2.61c1.43,10.26 3.27,20.45 5.14,30.62c0.62,3.31 1.22,6.61 1.83,9.92c0.38,2.1 0.76,4.22 1.14,6.34c0.27,1.48 0.27,1.48 0.56,2.97c0.16,0.92 0.33,1.82 0.51,2.75c0.16,0.79 0.3,1.6 0.44,2.42c0.48,2.38 0.48,2.38 1.54,5.59c2,1.34 2,1.34 4.38,2.38c4.27,2.02 4.27,2.02 5.48,4.55c7.59,-0.7 15.08,-1.74 22.58,-3.06c1.11,-0.2 2.24,-0.39 3.38,-0.61c14.86,-2.69 29.58,-5.99 44.31,-9.25c6.13,-1.37 12.24,-2.7 18.37,-4.05c2.1,-0.47 4.19,-0.93 6.29,-1.38c8.14,-1.8 16.27,-3.38 24.48,-4.75c-0.76,-3.76 -0.76,-3.76 -4.16,-5.19c-1.37,-0.61 -2.71,-1.2 -4.08,-1.79c-1.08,-0.48 -1.08,-0.48 -2.21,-0.98c-1.54,-0.68 -3.1,-1.35 -4.64,-2.02c-2.33,-1.01 -4.67,-2.02 -6.99,-3.06c-6.97,-3.06 -13.88,-5.87 -21.15,-8.03c-5.52,-1.83 -10.84,-4.33 -16.18,-6.72c-3.54,-1.58 -7.08,-3.15 -10.62,-4.69c-0.68,-0.31 -1.37,-0.61 -2.08,-0.93c-6.18,-2.7 -12.43,-5.17 -18.72,-7.59c-7.14,-2.81 -14.16,-6.04 -21.16,-9.21c-13.45,-7.3 -13.45,-7.3 -27.31,-7.58l0,0.02zm232.35,36.68c-0.89,0.23 -1.78,0.47 -2.7,0.7c-0.97,0.25 -1.94,0.51 -2.94,0.78c-1.02,0.26 -2.03,0.53 -3.1,0.79c-3.27,0.87 -6.56,1.74 -9.83,2.62c-1.06,0.3 -2.14,0.57 -3.24,0.87c-6.46,1.75 -12.89,3.59 -19.32,5.48c-2.21,0.65 -4.4,1.27 -6.62,1.88c-3.24,0.9 -6.49,1.85 -9.72,2.81c-0.98,0.26 -1.97,0.53 -2.98,0.79c-5.19,1.57 -5.19,1.57 -8.95,5.42c-1.17,2.45 -1.17,2.45 -2.02,4.91c-0.83,2.1 -0.83,2.1 -3.3,4.41c-3.02,1.15 -3.02,1.15 -7.13,0.57c-2.32,-0.25 -2.32,-0.25 -4.65,0.57c-3.86,3.8 -6.83,8.17 -9.86,12.72c-0.6,0.89 -1.22,1.74 -1.84,2.64c-1.24,1.79 -2.44,3.62 -3.64,5.45c0.37,0.76 0.73,1.52 1.1,2.31c0.52,-0.3 1.05,-0.61 1.6,-0.92c10.45,-5.95 20.91,-11.57 31.81,-16.54c5.3,-2.44 10.41,-5.11 15.48,-8.04c6.19,-3.6 12.48,-6.68 18.97,-9.6c5.99,-2.7 11.81,-5.73 17.62,-8.84c7.57,-4.05 15.26,-7.81 22.97,-11.55c-3.48,-1.23 -4.33,-1.13 -7.73,-0.26l0,0.02zm-301.19,2.58c0.37,0.76 0.73,1.52 1.1,2.31c0.73,-0.39 1.44,-0.76 2.19,-1.15c-1.08,-0.39 -2.17,-0.76 -3.29,-1.15l0,-0.02zm3.29,2.31c0.37,0.76 0.73,1.52 1.1,2.31c0.73,-0.39 1.44,-0.76 2.19,-1.15c-1.08,-0.39 -2.17,-0.76 -3.29,-1.15l0,-0.02zm3.29,2.31c0.37,0.76 0.73,1.52 1.1,2.31c0.73,-0.39 1.44,-0.76 2.19,-1.15c-1.08,-0.39 -2.17,-0.76 -3.29,-1.15l0,-0.02zm3.29,2.31c4.35,4.88 9.1,8.8 14.24,12.72c0.73,-0.39 1.44,-0.76 2.19,-1.15c0,-0.76 0,-1.52 0,-2.31c-2.3,-1.69 -4.57,-3.25 -6.99,-4.77c-0.67,-0.43 -1.32,-0.87 -2,-1.3c-3.48,-2.41 -3.48,-2.41 -7.45,-3.18zm190,17.19c-0.98,0.22 -1.97,0.43 -2.98,0.67c-1.6,0.36 -1.6,0.36 -3.22,0.73c-2.29,0.51 -4.57,1.02 -6.87,1.54c-3.57,0.79 -7.14,1.6 -10.73,2.42c-12.38,2.79 -24.73,5.47 -37.28,7.44c-8.81,1.41 -17.48,3.42 -26.18,5.5c-1.59,0.37 -3.19,0.75 -4.78,1.12c-3.83,0.89 -7.64,1.79 -11.45,2.7c0,0.39 0,0.76 0,1.15c7.99,1.04 15.95,2.08 23.94,3.11c3.7,0.48 7.41,0.95 11.11,1.43c8.3,1.09 16.62,2.14 24.94,3.14c2.21,0.25 4.4,0.53 6.59,0.79c2.46,0.31 4.94,0.56 7.41,0.82c1.27,0.12 2.54,0.26 3.84,0.4c4.38,-0.61 5.79,-2.83 8.68,-6.23c3.48,-1.3 6.57,-2.24 10.26,-2.48c4.27,-1.46 6.41,-4.7 9.13,-8.28c0.52,-0.67 1.06,-1.35 1.6,-2.05c3.76,-4.78 3.76,-4.78 6.4,-10.31c-0.33,-2.55 -0.33,-2.55 -1.1,-4.63c-3.48,0 -6.03,0.25 -9.38,1.01l0.06,0.02zm-158.23,2.47c0,1.15 0,2.28 0,3.46c2.71,0.56 2.71,0.56 5.48,1.15c-1.43,-1.57 -2.91,-3.11 -4.38,-4.63c-0.37,0 -0.73,0 -1.1,0l0,0.02z" fill="#7b39ed" id="Path" transform="matrix(1 0 0 1 0 0)"/>
  <text fill="#000000" font-family="Manrope" font-size="210" font-weight="700" id="Intermezzo" style="cursor: move;" x="582" xml:space="preserve" y="343.01">Intermezzo</text>
  <path d="m359.33,160.02c5.74,0.92 8.8,5.92 12.65,11.06c0.72,0.92 1.43,1.87 2.18,2.83c2.28,3 4.56,5.99 6.83,9.01c1.54,2.03 3.1,4.07 4.65,6.1c3.81,4.97 7.58,9.97 11.36,14.96c-1.91,5.84 -4.56,9.57 -8,14.04c-1.15,1.51 -2.31,3 -3.5,4.54c-1.28,1.66 -2.56,3.32 -3.84,4.97c-1.35,1.73 -2.69,3.5 -4.06,5.24c-3.65,4.75 -7.31,9.5 -10.99,14.23c-3.84,4.96 -7.65,9.89 -11.49,14.87c-7.24,9.38 -14.51,18.79 -21.76,28.13c-8.25,10.68 -16.51,21.37 -24.76,32.07c-16.98,21.99 -33.96,43.96 -50.95,65.93c-3.56,-2.09 -6.15,-4.31 -8.92,-7.89c-0.74,-0.94 -1.47,-1.88 -2.24,-2.86c-1.18,-1.55 -1.18,-1.55 -2.4,-3.13c-0.84,-1.09 -1.69,-2.19 -2.56,-3.3c-2.78,-3.6 -5.58,-7.24 -8.34,-10.85c-1.94,-2.51 -3.88,-5.01 -5.81,-7.52c-4.06,-5.24 -8.09,-10.5 -12.14,-15.77c-5.19,-6.76 -10.4,-13.49 -15.61,-20.24c-3.99,-5.18 -7.99,-10.36 -11.98,-15.54c-1.91,-2.49 -3.83,-4.97 -5.75,-7.46c-2.69,-3.47 -5.34,-6.93 -8.02,-10.42c-0.81,-1.04 -1.6,-2.07 -2.44,-3.13c-5.43,-7.14 -5.43,-7.14 -5.43,-10.76c1.74,-2.22 1.74,-2.22 4.19,-4.84c6.71,-7.39 12.84,-15.45 19.04,-23.57c1.74,-2.24 1.74,-2.24 3.49,-4.54c2.81,-3.67 5.62,-7.35 8.43,-11.02c6.77,7.27 12.93,15.05 19.04,23.25c1.94,2.58 3.9,5.14 5.84,7.73c3.03,4.01 6.08,8.05 9.09,12.1c2.94,3.94 5.89,7.84 8.86,11.72c0.9,1.22 1.81,2.47 2.74,3.71c0.84,1.11 1.69,2.22 2.57,3.37c0.74,0.98 1.49,1.98 2.25,2.98c2.35,2.34 2.35,2.34 5.65,1.56c3.63,-1.56 4.83,-3.3 7.15,-7.18c3.02,-4.77 6.03,-8.87 9.65,-12.83c4.33,-4.75 7.97,-9.89 11.65,-15.51c3.44,-5.14 7.19,-9.85 10.95,-14.62c2.09,-2.71 4.18,-5.43 6.28,-8.14c25.73,-33.39 25.73,-33.39 51.47,-66.78c0.85,-1.26 1.71,-2.54 2.59,-3.86c0.81,-0.89 1.6,-1.75 2.44,-2.66l-0.04,0.04z" fill="#ffffff" id="path1"/>
 </g>
</svg>