<?xml version="1.0"?>
<svg width="199.647" height="44" xmlns="http://www.w3.org/2000/svg" xmlns:svg="http://www.w3.org/2000/svg" xml:space="preserve">
 <g class="layer">
  <title>Layer 1</title>
  <path d="m43.31,22.14c0,11.81 -9.57,21.34 -21.37,21.34c-11.81,0 -21.38,-9.53 -21.38,-21.34c0,-11.81 9.56,-21.39 21.37,-21.39l0.02,0c11.8,0 21.36,9.56 21.36,21.39" fill="#070C19" id="svg_1"/>
  <path d="m43,24.63l-0.02,0l-1.85,-11.88a0.86,0.86 0 0 0 0.66,-0.84a0.88,0.88 0 0 0 -0.88,-0.87a0.87,0.87 0 0 0 -0.63,0.28l-8.11,-8.11a0.87,0.87 0 1 0 -1.53,-0.75l-11.07,-1.58a0.88,0.88 0 0 0 -0.88,-0.88l0,0a0.88,0.88 0 0 0 -0.83,1.13l-6.35,2.88a0.88,0.88 0 0 0 -1.61,0.48c0,0.15 0.04,0.3 0.12,0.44l-1.82,1.46a0.87,0.87 0 0 0 -0.62,-0.26a0.87,0.87 0 0 0 -0.59,1.51l-3.78,5.25a0.85,0.85 0 0 0 -0.42,-0.11a0.87,0.87 0 0 0 -0.25,1.71l-1.63,9.86l-0.03,0a0.88,0.88 0 0 0 -0.88,0.87a0.87,0.87 0 0 0 0.87,0.87l0.01,0q0.15,0 0.29,-0.04l4.61,8.99a0.89,0.89 0 0 0 -0.44,0.75a0.88,0.88 0 0 0 1.59,0.51l5.2,3.83c-0.13,0.15 -0.19,0.35 -0.19,0.55a0.88,0.88 0 0 0 0.86,0.87a0.87,0.87 0 0 0 0.84,-0.62l2.11,0.83q-0.02,0.1 -0.03,0.21a0.87,0.87 0 0 0 0.87,0.87a0.89,0.89 0 0 0 0.85,-0.66l6.95,0.8a0.87,0.87 0 1 0 1.75,-0.04a0.81,0.81 0 0 0 -0.04,-0.26l10.07,-4.85a0.86,0.86 0 0 0 0.73,0.4a0.88,0.88 0 0 0 0.49,-1.61l5.32,-10.29c0.09,0.03 0.19,0.04 0.29,0.04a0.88,0.88 0 0 0 0.87,-0.87a0.88,0.88 0 0 0 -0.87,-0.87zm-6.15,11.84a0.88,0.88 0 0 0 -0.83,0.93l0.01,0.05l-7.52,2.02a0.92,0.92 0 0 0 -0.07,-0.14l8.33,-6.93c0.11,0.08 0.24,0.14 0.37,0.17l-0.29,3.9zm-11.15,5.74a0.88,0.88 0 0 0 -1.2,0.34a0.88,0.88 0 0 0 -0.08,0.21l-6.95,-0.81l-0.01,-0.04l9.42,-1.84c0.03,0.13 0.1,0.25 0.2,0.34l-1.38,1.8zm-13.4,-2.25l-3.86,-2.83l4.38,2.68l-0.01,0a0.85,0.85 0 0 0 -0.51,0.15zm-3.96,-32.51l1.94,-2.25q0.19,0.13 0.46,0.16l-1.19,3.97a0.87,0.87 0 0 0 -0.64,0.84l0,0.08l-5.3,3.12a0.99,0.99 0 0 0 -0.16,-0.28l4.67,-5.4q0.13,-0.11 0.22,-0.24zm12.8,-4.06a0.7,0.7 0 0 0 0.1,0.24l-10.87,5.91a0.9,0.9 0 0 0 -0.59,-0.24l1.18,-3.95a0.87,0.87 0 0 0 0.69,-0.84l9.49,-1.12zm9.49,-0.54a0.88,0.88 0 0 0 0.85,0.72q0.12,-0.01 0.22,-0.04l1.46,3.58c-0.14,0.08 -0.25,0.2 -0.33,0.34l-10,-4.06c0,-0.04 0.02,-0.09 0.02,-0.15l7.78,-0.39zm9.93,9.86l-2.3,5.88a1.06,1.06 0 0 0 -0.21,-0.03a0.7,0.7 0 0 0 -0.2,0.03l-3.84,-9.95c0.11,-0.06 0.2,-0.14 0.27,-0.24l5.78,3.35c-0.01,0.06 -0.02,0.1 -0.02,0.16a0.87,0.87 0 0 0 0.52,0.8zm-12.27,26.45a0.87,0.87 0 0 0 -0.45,-0.22l0.24,-9.74a0.86,0.86 0 0 0 0.57,-0.3l7.8,2.71a0.53,0.53 0 0 0 0,0.11a0.9,0.9 0 0 0 0.16,0.51l-8.32,6.93zm-11.7,1.93l-0.04,0l-0.99,-5.35a0.87,0.87 0 0 0 0.48,-0.41l10.82,4.26a1.27,1.27 0 0 0 -0.03,0.22l0.01,0.04l-9.42,1.84a0.87,0.87 0 0 0 -0.82,-0.6l-0.01,0zm4.79,-37.27a0.9,0.9 0 0 0 0.6,0.23q0.1,0 0.17,-0.02l3.15,9.04a0.9,0.9 0 0 0 -0.44,0.53l-14.22,-3.4c0,-0.02 0.01,-0.02 0.01,-0.03c0,-0.16 -0.04,-0.32 -0.13,-0.45l10.86,-5.9zm6.23,35.12a0.85,0.85 0 0 0 -0.67,0.43l-10.82,-4.25q0.02,-0.1 0.02,-0.21a0.99,0.99 0 0 0 -0.04,-0.27l11.27,-5.67c0.13,0.12 0.3,0.21 0.48,0.24l-0.24,9.73zm-17,-28.52l14.21,3.41l0,0.01a0.92,0.92 0 0 0 0.16,0.52l-8.29,7.83a0.85,0.85 0 0 0 -0.55,-0.19c-0.07,0 -0.14,0 -0.21,0.02l-5.72,-11.08c0.19,-0.11 0.34,-0.3 0.4,-0.52zm16.56,17.59l-10.2,-4.88a0.84,0.84 0 0 0 -0.12,-0.77l8.29,-7.83c0.15,0.12 0.34,0.2 0.55,0.2l0.02,0l2,12.79a0.84,0.84 0 0 0 -0.54,0.49zm-10.98,-4.28a0.85,0.85 0 0 0 0.68,-0.39l10.24,4.9c0,0.04 0,0.07 0,0.11c0,0.15 0.04,0.3 0.11,0.43l-11.23,5.65a0.85,0.85 0 0 0 -0.53,-0.36l0.73,-10.34zm11.79,3.74l-0.04,0l-2,-12.78a0.87,0.87 0 0 0 0.49,-0.38l10.78,4.87a0.93,0.93 0 0 0 0.12,0.75l-8.69,7.84a0.89,0.89 0 0 0 -0.66,-0.31l0,0.01zm9.33,-8.49l-10.79,-4.88c0.03,-0.08 0.04,-0.17 0.04,-0.26a0.8,0.8 0 0 0 -0.11,-0.41l6.51,-4.94a0.85,0.85 0 0 0 0.83,0.23l3.84,9.95a0.93,0.93 0 0 0 -0.32,0.31zm-4.48,-10.68l-6.52,4.94a0.8,0.8 0 0 0 -0.62,-0.26l-0.17,0.01l-3.14,-9.03a0.94,0.94 0 0 0 0.36,-0.35l10.01,4.05q-0.03,0.1 -0.03,0.21c0,0.15 0.04,0.3 0.11,0.44l0,-0.01zm-23.05,2.74c0.07,0 0.14,0 0.21,-0.03l5.73,11.09a0.85,0.85 0 0 0 -0.45,0.77l0,0.01l-8.97,1.4a0.85,0.85 0 0 0 -0.35,-0.49l3.56,-12.79q0.13,0.04 0.27,0.04zm-3.44,13.46l8.96,-1.4a0.89,0.89 0 0 0 0.67,0.62l-0.74,10.32a0.78,0.78 0 0 0 -0.46,0.16l-8.63,-9.14c0.13,-0.15 0.2,-0.34 0.2,-0.54l0,-0.02zm30.92,6.36a0.87,0.87 0 0 0 -0.75,0.53l-7.72,-2.7c0.04,-0.11 0.06,-0.23 0.06,-0.34a0.81,0.81 0 0 0 -0.08,-0.38l8.71,-7.87c0.12,0.1 0.25,0.16 0.4,0.2l-0.62,10.56zm-28.81,-23.9a0.92,0.92 0 0 0 -0.11,-0.39l1.48,-1.19l-1.37,1.58zm-4.79,6.7c0,-0.03 0,-0.04 -0.01,-0.07l5.31,-3.11c0.06,0.17 0.18,0.32 0.34,0.42l-3.56,12.79a1.06,1.06 0 0 0 -0.27,-0.04l-0.1,0l-2.27,-9.19a0.87,0.87 0 0 0 0.56,-0.8zm2.32,11.56l8.62,9.13a0.94,0.94 0 0 0 -0.2,0.52l-7.37,0.59a0.87,0.87 0 0 0 -0.75,-0.53l-0.64,-9.56c0.12,-0.02 0.24,-0.07 0.34,-0.15zm1.08,10.8q0.04,-0.11 0.03,-0.23c0,-0.04 0,-0.06 -0.01,-0.11l7.34,-0.58a0.87,0.87 0 0 0 0.85,0.69l0.06,0l1,5.35a0.94,0.94 0 0 0 -0.42,0.28l-8.85,-5.4zm30.79,-4.99a0.78,0.78 0 0 0 -0.35,-0.16l0.61,-10.56a0.95,0.95 0 0 0 0.39,-0.14l3.86,4.74a0.87,0.87 0 0 0 -0.03,1.15l-4.48,4.97zm4.69,-6.27l-3.86,-4.73a0.87,0.87 0 0 0 -0.21,-1.36l2.31,-5.89a0.35,0.35 0 0 1 0.12,0.01l1.86,11.88a0.49,0.49 0 0 0 -0.22,0.09zm-2.41,-13.23l-5.73,-3.32c0.04,-0.11 0.06,-0.23 0.06,-0.34a0.87,0.87 0 0 0 -0.87,-0.87l0,0c-0.08,0 -0.15,0.01 -0.22,0.03l-1.46,-3.59c0.04,-0.02 0.07,-0.04 0.1,-0.06l8.12,8.12c0.01,0.02 0,0.02 0,0.03l0,0zm-9.85,-8.89l-7.44,0.38a0.88,0.88 0 0 0 -0.86,-0.72c-0.24,0 -0.47,0.1 -0.64,0.28l-1.87,-1.31q0.04,-0.07 0.06,-0.16l10.75,1.53zm-12.32,-1.31a0.87,0.87 0 0 0 0.74,0.42c0.24,0 0.47,-0.1 0.64,-0.28l1.87,1.31a0.7,0.7 0 0 0 -0.1,0.38l-9.49,1.1l-0.01,-0.04l6.35,-2.89zm-10.38,6.54l0.08,0l-3.26,3.77l2.78,-3.87c0.12,0.07 0.26,0.1 0.4,0.1zm-4.82,6.66l0.03,0c0.03,0 0.06,-0.01 0.09,-0.01l2.27,9.19a0.87,0.87 0 0 0 -0.56,0.81l0,0.02l-2.88,0.44a0.9,0.9 0 0 0 -0.58,-0.59l1.63,-9.86zm-1.39,11.41a0.9,0.9 0 0 0 0.37,-0.72l0,-0.01l2.89,-0.44a0.91,0.91 0 0 0 0.78,0.62l0.65,9.55c-0.02,0 -0.04,0.01 -0.06,0.01l-4.63,-9.01zm12.21,14.33l1.83,1.11l-1.73,-0.67l0,-0.03a0.69,0.69 0 0 0 -0.1,-0.41zm12.31,2.08l1.37,-1.8c0.14,0.08 0.28,0.13 0.44,0.13a0.88,0.88 0 0 0 0.87,-0.98l7.18,-1.93l-9.76,4.72a0.46,0.46 0 0 0 -0.1,-0.14zm11.18,-5.85l0.31,-3.92a0.86,0.86 0 0 0 0.63,-1.39l4.48,-4.95l-5.31,10.28a0.28,0.28 0 0 0 -0.11,-0.02z" fill="#FFF" id="svg_2" stroke="#FFF" stroke-miterlimit="10" stroke-width="0.17"/>
  <path d="m21.96,36.1c-0.58,-0.12 -3.17,-1.26 -5.69,-3.39c-2.16,-1.81 -4.73,-4.77 -4.73,-8.47l0,-13.05c0,-0.22 0.02,-0.63 0.19,-0.75c0.13,-0.13 0.45,-0.2 0.78,-0.3c0.08,-0.01 7.74,-2.02 9.46,-2.02s9.37,2.01 9.44,2.02c0.32,0.09 0.63,0.17 0.76,0.28c0.15,0.14 0.17,0.55 0.17,0.77l0,13.04c0,3.71 -2.56,6.67 -4.71,8.47c-2.52,2.14 -5.09,3.28 -5.67,3.4m-3.24,-6.51l0.45,0l-0.45,0z" fill="#FFF" id="svg_3"/>
  <path d="m14.04,23.42l2.46,-2.45l3.7,3.7l7.18,-7.16l2.46,2.44l-9.64,9.64l-6.16,-6.17z" fill="#070C19" id="svg_4"/>
  <path d="m57.75,12.52l0,19.53l-4,0l0,-19.53l4,0zm7.38,11.05l0,8.48l-3.93,0l0,-14.65l3.71,0l0.05,3.02q0.62,-1.53 1.74,-2.37c1.13,-0.84 1.69,-0.84 2.82,-0.84q2.28,0 3.66,1.47q1.38,1.47 1.38,4.05l0,9.32l-3.94,0l0,-8.64q0,-1.36 -0.7,-2.13t-1.94,-0.78q-1.26,0 -2.06,0.81t-0.79,2.26m20.06,-6.18l0,3.01l-2.74,0l0,7.36q0,1.37 1.34,1.37q0.22,0 0.62,-0.06a8.11,8.11 0 0 0 0.62,-0.11l0.57,2.95q-0.66,0.19 -1.31,0.27c-0.65,0.08 -0.84,0.08 -1.24,0.08q-2.2,0 -3.37,-1.07q-1.16,-1.07 -1.16,-3.09l0,-7.7l-2.02,0l0,-3l2.02,0l0,-3.49l3.93,0l0,3.49l2.74,-0.01zm8.91,14.95q-2.24,0 -3.86,-0.92c-1.63,-0.92 -1.92,-1.48 -2.5,-2.61s-0.87,-2.46 -0.87,-4.01q0,-2.27 0.87,-3.97c0.87,-1.7 1.4,-2.02 2.45,-2.66s2.29,-0.96 3.72,-0.96q1.91,0 3.47,0.81t2.48,2.47t0.93,4.15l0,1.1l-10.03,0q0.07,1.8 0.99,2.72q0.94,0.91 2.42,0.91q1.03,0 1.77,-0.43q0.74,-0.44 1.06,-1.3l3.56,0.67q-0.53,1.82 -2.22,2.93c-1.68,1.1 -2.53,1.1 -4.24,1.1m-3.31,-9.06l6.21,0q-0.14,-1.43 -0.92,-2.27q-0.77,-0.84 -2.14,-0.84q-1.41,0 -2.22,0.87q-0.82,0.88 -0.93,2.24m12.69,8.77l0,-14.65l3.8,0l0,2.55l0.15,0q0.41,-1.35 1.36,-2.05t2.18,-0.7q0.67,0 1.28,0.13l0,3.51q-0.27,-0.07 -0.77,-0.13a8.11,8.11 0 0 0 -0.94,-0.06q-1.36,0 -2.25,0.85c-0.88,0.85 -0.88,1.3 -0.88,2.21l0,8.34l-3.93,0zm11.12,0l0,-14.65l3.65,0l0.16,2.84q0.59,-1.6 1.73,-2.33q1.14,-0.74 2.45,-0.74q2.78,0 3.77,3.29q0.62,-1.69 1.91,-2.49q1.29,-0.8 2.8,-0.8q2.02,0 3.35,1.31q1.33,1.3 1.33,3.69l0,9.88l-3.95,0l0,-9.14q0,-1.23 -0.67,-1.84t-1.65,-0.61q-1.11,0 -1.76,0.71t-0.65,1.86l0,9.02l-3.8,0l0,-9.24q0,-1.08 -0.64,-1.71t-1.64,-0.64q-1.04,0 -1.75,0.7t-0.71,2.03l0,8.86l-3.93,0zm31.13,0.29q-2.25,0 -3.87,-0.92c-1.63,-0.92 -1.92,-1.48 -2.5,-2.61s-0.87,-2.46 -0.87,-4.01q0,-2.27 0.87,-3.97c0.87,-1.71 1.4,-2.03 2.45,-2.66s2.29,-0.96 3.72,-0.96q1.91,0 3.47,0.81t2.49,2.47t0.92,4.15l0,1.1l-10.03,0q0.07,1.8 1,2.71q0.93,0.92 2.41,0.92q1.04,0 1.78,-0.44q0.74,-0.44 1.05,-1.29l3.57,0.67q-0.54,1.82 -2.22,2.92c-1.69,1.1 -2.54,1.11 -4.24,1.11m-3.32,-9.06l6.21,0q-0.14,-1.43 -0.92,-2.27q-0.77,-0.84 -2.13,-0.84q-1.42,0 -2.23,0.87q-0.81,0.87 -0.93,2.24m12.05,8.77l0,-2.39l7.22,-8.99l0,-0.11l-7,0l0,-3.17l11.76,0l0,2.61l-6.82,8.77l0,0.11l7.07,0l0,3.17l-12.23,0zm15.37,0l0,-2.39l7.23,-8.99l0,-0.11l-7,0l0,-3.17l11.75,0l0,2.61l-6.81,8.77l0,0.11l7.06,0l0,3.17l-12.23,0zm21.5,0.29q-2.2,0 -3.81,-0.95q-1.62,-0.95 -2.49,-2.65q-0.87,-1.7 -0.87,-3.95q0,-2.27 0.87,-3.98c0.87,-1.7 1.41,-2.02 2.49,-2.65q1.61,-0.95 3.81,-0.95q2.2,0 3.82,0.95t2.48,2.65t0.87,3.98q0,2.25 -0.87,3.95q-0.87,1.7 -2.48,2.65t-3.82,0.95m0,-3.1q1.58,0 2.37,-1.27t0.8,-3.2q0,-1.94 -0.8,-3.2t-2.37,-1.27t-2.36,1.27t-0.8,3.2q0,1.93 0.8,3.2c0.79,1.27 1.31,1.27 2.36,1.27" fill="#ffffff" id="svg_5"/>
 </g>
</svg>